<mxfile host="65bd71144e">
    <diagram id="FHEGfaFArTB6uBRi6pnG" name="Purpose Defining Schema">
        <mxGraphModel dx="3130" dy="2566" grid="1" gridSize="10" guides="1" tooltips="1" connect="1" arrows="1" fold="1" page="1" pageScale="1" pageWidth="827" pageHeight="1169" math="0" shadow="0">
            <root>
                <mxCell id="0"/>
                <mxCell id="1" parent="0"/>
                <mxCell id="2" value="Unit" style="shape=cylinder3;whiteSpace=wrap;html=1;boundedLbl=1;backgroundOutline=1;size=21.761875697544667;" parent="1" vertex="1">
                    <mxGeometry x="275" y="-480" width="130" height="150" as="geometry"/>
                </mxCell>
                <mxCell id="4" value="unit_id" style="shape=umlBoundary;whiteSpace=wrap;html=1;" parent="1" vertex="1">
                    <mxGeometry x="405" y="-451.25" width="70" height="47.5" as="geometry"/>
                </mxCell>
                <mxCell id="5" value="Floor" style="html=1;rounded=0;" parent="1" vertex="1">
                    <mxGeometry x="295" y="-584" width="90" height="55" as="geometry"/>
                </mxCell>
                <mxCell id="6" value="" style="endArrow=none;html=1;rounded=0;align=center;verticalAlign=top;endFill=0;labelBackgroundColor=none;endSize=2;exitX=0.5;exitY=1;exitDx=0;exitDy=0;entryX=0.5;entryY=0;entryDx=0;entryDy=0;entryPerimeter=0;" parent="1" source="5" target="2" edge="1">
                    <mxGeometry relative="1" as="geometry">
                        <mxPoint x="275" y="-413.5344827586207" as="sourcePoint"/>
                        <mxPoint x="300" y="-406" as="targetPoint"/>
                    </mxGeometry>
                </mxCell>
                <mxCell id="7" value="" style="shape=requiredInterface;html=1;fontSize=11;align=center;fillColor=none;points=[];aspect=fixed;resizable=0;verticalAlign=bottom;labelPosition=center;verticalLabelPosition=top;flipH=1;" parent="1" vertex="1">
                    <mxGeometry x="300" y="-410" width="5" height="10" as="geometry"/>
                </mxCell>
                <mxCell id="102" style="edgeStyle=none;html=1;fontSize=10;" parent="1" source="19" target="2" edge="1">
                    <mxGeometry relative="1" as="geometry"/>
                </mxCell>
                <mxCell id="19" value="" style="image;html=1;image=img/lib/clip_art/people/Doctor_Man_128x128.png" parent="1" vertex="1">
                    <mxGeometry x="270" y="-260" width="140" height="120" as="geometry"/>
                </mxCell>
                <mxCell id="114" style="edgeStyle=orthogonalEdgeStyle;curved=1;html=1;fontSize=10;" parent="1" source="22" target="104" edge="1">
                    <mxGeometry relative="1" as="geometry"/>
                </mxCell>
                <mxCell id="22" value="" style="image;html=1;image=img/lib/clip_art/people/Doctor_Man_128x128.png" parent="1" vertex="1">
                    <mxGeometry x="20" y="120" width="80" height="80" as="geometry"/>
                </mxCell>
                <mxCell id="115" style="edgeStyle=orthogonalEdgeStyle;curved=1;html=1;fontSize=10;" parent="1" source="23" target="104" edge="1">
                    <mxGeometry relative="1" as="geometry"/>
                </mxCell>
                <mxCell id="23" value="" style="image;html=1;image=img/lib/clip_art/people/Doctor_Man_128x128.png" parent="1" vertex="1">
                    <mxGeometry x="262" y="140" width="85" height="80" as="geometry"/>
                </mxCell>
                <mxCell id="116" style="edgeStyle=orthogonalEdgeStyle;curved=1;html=1;fontSize=10;" parent="1" source="24" target="104" edge="1">
                    <mxGeometry relative="1" as="geometry"/>
                </mxCell>
                <mxCell id="24" value="" style="image;html=1;image=img/lib/clip_art/people/Doctor_Man_128x128.png" parent="1" vertex="1">
                    <mxGeometry x="495" y="130" width="80" height="80" as="geometry"/>
                </mxCell>
                <mxCell id="76" style="html=1;fontSize=10;" parent="1" source="34" target="61" edge="1">
                    <mxGeometry relative="1" as="geometry"/>
                </mxCell>
                <mxCell id="34" value="" style="shape=mxgraph.signs.healthcare.out_patient;html=1;pointerEvents=1;fillColor=#000000;strokeColor=none;verticalLabelPosition=bottom;verticalAlign=top;align=center;" parent="1" vertex="1">
                    <mxGeometry x="250" y="890" width="115" height="169" as="geometry"/>
                </mxCell>
                <mxCell id="36" style="edgeStyle=orthogonalEdgeStyle;html=1;fontSize=10;curved=1;" parent="1" source="110" target="24" edge="1">
                    <mxGeometry relative="1" as="geometry">
                        <mxPoint x="680" y="145" as="sourcePoint"/>
                    </mxGeometry>
                </mxCell>
                <mxCell id="38" style="edgeStyle=orthogonalEdgeStyle;curved=1;html=1;fontSize=10;" parent="1" source="37" target="19" edge="1">
                    <mxGeometry relative="1" as="geometry"/>
                </mxCell>
                <mxCell id="37" value="&lt;ul style=&quot;&quot;&gt;&lt;li style=&quot;text-align: justify;&quot;&gt;&lt;font style=&quot;font-size: 10px;&quot;&gt;doctorInCharge_id&lt;/font&gt;&lt;/li&gt;&lt;li style=&quot;text-align: justify;&quot;&gt;&lt;font style=&quot;font-size: 10px;&quot;&gt;doctor_name&lt;/font&gt;&lt;/li&gt;&lt;li style=&quot;text-align: justify;&quot;&gt;&lt;font style=&quot;font-size: 10px;&quot;&gt;speciality&lt;/font&gt;&lt;/li&gt;&lt;li style=&quot;text-align: justify;&quot;&gt;&lt;font style=&quot;font-size: 10px;&quot;&gt;fk_unit_id&lt;/font&gt;&lt;/li&gt;&lt;li style=&quot;text-align: justify;&quot;&gt;&lt;font style=&quot;font-size: 10px;&quot;&gt;fk_listofdoctors&lt;/font&gt;&lt;/li&gt;&lt;/ul&gt;" style="ellipse;whiteSpace=wrap;html=1;align=left;" parent="1" vertex="1">
                    <mxGeometry x="50" y="-340" width="150" height="140" as="geometry"/>
                </mxCell>
                <mxCell id="41" style="edgeStyle=orthogonalEdgeStyle;curved=1;html=1;fontSize=10;" parent="1" source="40" target="23" edge="1">
                    <mxGeometry relative="1" as="geometry"/>
                </mxCell>
                <mxCell id="40" value="&lt;ul style=&quot;&quot;&gt;&lt;li style=&quot;text-align: justify;&quot;&gt;&lt;font style=&quot;font-size: 10px;&quot;&gt;doctor_id&lt;/font&gt;&lt;/li&gt;&lt;li style=&quot;text-align: justify;&quot;&gt;&lt;font style=&quot;font-size: 10px;&quot;&gt;doctor_name&lt;/font&gt;&lt;/li&gt;&lt;li style=&quot;text-align: justify;&quot;&gt;&lt;font style=&quot;font-size: 10px;&quot;&gt;speciality&lt;/font&gt;&lt;/li&gt;&lt;li style=&quot;text-align: justify;&quot;&gt;&lt;font style=&quot;font-size: 10px;&quot;&gt;fk_docInCharge_id&lt;/font&gt;&lt;/li&gt;&lt;/ul&gt;" style="ellipse;whiteSpace=wrap;html=1;align=left;" parent="1" vertex="1">
                    <mxGeometry x="345" y="210" width="150" height="125" as="geometry"/>
                </mxCell>
                <mxCell id="100" style="edgeStyle=none;html=1;fontSize=10;" parent="1" source="46" target="23" edge="1">
                    <mxGeometry relative="1" as="geometry"/>
                </mxCell>
                <mxCell id="46" value="List-of-Intervention" style="swimlane;fontStyle=0;childLayout=stackLayout;horizontal=1;startSize=30;horizontalStack=0;resizeParent=1;resizeParentMax=0;resizeLast=0;collapsible=1;marginBottom=0;whiteSpace=wrap;html=1;fontSize=10;" parent="1" vertex="1">
                    <mxGeometry x="234.5" y="390" width="140" height="90" as="geometry"/>
                </mxCell>
                <mxCell id="47" value="fk_Intervention_id1" style="text;strokeColor=none;fillColor=none;align=left;verticalAlign=middle;spacingLeft=4;spacingRight=4;overflow=hidden;points=[[0,0.5],[1,0.5]];portConstraint=eastwest;rotatable=0;whiteSpace=wrap;html=1;fontSize=10;" parent="46" vertex="1">
                    <mxGeometry y="30" width="140" height="30" as="geometry"/>
                </mxCell>
                <mxCell id="48" value="fk_doctor_id" style="text;strokeColor=none;fillColor=none;align=left;verticalAlign=middle;spacingLeft=4;spacingRight=4;overflow=hidden;points=[[0,0.5],[1,0.5]];portConstraint=eastwest;rotatable=0;whiteSpace=wrap;html=1;fontSize=10;" parent="46" vertex="1">
                    <mxGeometry y="60" width="140" height="30" as="geometry"/>
                </mxCell>
                <mxCell id="92" style="edgeStyle=none;html=1;fontSize=10;" parent="1" source="61" target="46" edge="1">
                    <mxGeometry relative="1" as="geometry"/>
                </mxCell>
                <mxCell id="61" value="Intervention" style="swimlane;fontStyle=0;childLayout=stackLayout;horizontal=1;startSize=30;horizontalStack=0;resizeParent=1;resizeParentMax=0;resizeLast=0;collapsible=1;marginBottom=0;whiteSpace=wrap;html=1;fontSize=10;" parent="1" vertex="1">
                    <mxGeometry x="234.5" y="560" width="140" height="210" as="geometry"/>
                </mxCell>
                <mxCell id="62" value="Intervention_id" style="text;strokeColor=none;fillColor=none;align=left;verticalAlign=middle;spacingLeft=4;spacingRight=4;overflow=hidden;points=[[0,0.5],[1,0.5]];portConstraint=eastwest;rotatable=0;whiteSpace=wrap;html=1;fontSize=10;" parent="61" vertex="1">
                    <mxGeometry y="30" width="140" height="30" as="geometry"/>
                </mxCell>
                <mxCell id="63" value="current date" style="text;strokeColor=none;fillColor=none;align=left;verticalAlign=middle;spacingLeft=4;spacingRight=4;overflow=hidden;points=[[0,0.5],[1,0.5]];portConstraint=eastwest;rotatable=0;whiteSpace=wrap;html=1;fontSize=10;" parent="61" vertex="1">
                    <mxGeometry y="60" width="140" height="30" as="geometry"/>
                </mxCell>
                <mxCell id="64" value="observed symptoms" style="text;strokeColor=none;fillColor=none;align=left;verticalAlign=middle;spacingLeft=4;spacingRight=4;overflow=hidden;points=[[0,0.5],[1,0.5]];portConstraint=eastwest;rotatable=0;whiteSpace=wrap;html=1;fontSize=10;" parent="61" vertex="1">
                    <mxGeometry y="90" width="140" height="30" as="geometry"/>
                </mxCell>
                <mxCell id="65" value="prescribed treatment" style="text;strokeColor=none;fillColor=none;align=left;verticalAlign=middle;spacingLeft=4;spacingRight=4;overflow=hidden;points=[[0,0.5],[1,0.5]];portConstraint=eastwest;rotatable=0;whiteSpace=wrap;html=1;fontSize=10;" parent="61" vertex="1">
                    <mxGeometry y="120" width="140" height="30" as="geometry"/>
                </mxCell>
                <mxCell id="66" value="fk_patient_id" style="text;strokeColor=none;fillColor=none;align=left;verticalAlign=middle;spacingLeft=4;spacingRight=4;overflow=hidden;points=[[0,0.5],[1,0.5]];portConstraint=eastwest;rotatable=0;whiteSpace=wrap;html=1;fontSize=10;" parent="61" vertex="1">
                    <mxGeometry y="150" width="140" height="30" as="geometry"/>
                </mxCell>
                <mxCell id="67" value="fk_doctor_id" style="text;strokeColor=none;fillColor=none;align=left;verticalAlign=middle;spacingLeft=4;spacingRight=4;overflow=hidden;points=[[0,0.5],[1,0.5]];portConstraint=eastwest;rotatable=0;whiteSpace=wrap;html=1;fontSize=10;" parent="61" vertex="1">
                    <mxGeometry y="180" width="140" height="30" as="geometry"/>
                </mxCell>
                <mxCell id="101" style="edgeStyle=none;html=1;fontSize=10;" parent="1" source="68" target="24" edge="1">
                    <mxGeometry relative="1" as="geometry"/>
                </mxCell>
                <mxCell id="68" value="List-of-Intervention" style="swimlane;fontStyle=0;childLayout=stackLayout;horizontal=1;startSize=30;horizontalStack=0;resizeParent=1;resizeParentMax=0;resizeLast=0;collapsible=1;marginBottom=0;whiteSpace=wrap;html=1;fontSize=10;" parent="1" vertex="1">
                    <mxGeometry x="470" y="390" width="140" height="90" as="geometry"/>
                </mxCell>
                <mxCell id="69" value="fk_Intervention_id1" style="text;strokeColor=none;fillColor=none;align=left;verticalAlign=middle;spacingLeft=4;spacingRight=4;overflow=hidden;points=[[0,0.5],[1,0.5]];portConstraint=eastwest;rotatable=0;whiteSpace=wrap;html=1;fontSize=10;" parent="68" vertex="1">
                    <mxGeometry y="30" width="140" height="30" as="geometry"/>
                </mxCell>
                <mxCell id="70" value="fk_doctor_id" style="text;strokeColor=none;fillColor=none;align=left;verticalAlign=middle;spacingLeft=4;spacingRight=4;overflow=hidden;points=[[0,0.5],[1,0.5]];portConstraint=eastwest;rotatable=0;whiteSpace=wrap;html=1;fontSize=10;" parent="68" vertex="1">
                    <mxGeometry y="60" width="140" height="30" as="geometry"/>
                </mxCell>
                <mxCell id="98" style="edgeStyle=none;html=1;fontSize=10;" parent="1" source="71" target="22" edge="1">
                    <mxGeometry relative="1" as="geometry"/>
                </mxCell>
                <mxCell id="71" value="List-of-Intervention" style="swimlane;fontStyle=0;childLayout=stackLayout;horizontal=1;startSize=30;horizontalStack=0;resizeParent=1;resizeParentMax=0;resizeLast=0;collapsible=1;marginBottom=0;whiteSpace=wrap;html=1;fontSize=10;" parent="1" vertex="1">
                    <mxGeometry x="10" y="390" width="140" height="90" as="geometry"/>
                </mxCell>
                <mxCell id="72" value="fk_Intervention_id1" style="text;strokeColor=none;fillColor=none;align=left;verticalAlign=middle;spacingLeft=4;spacingRight=4;overflow=hidden;points=[[0,0.5],[1,0.5]];portConstraint=eastwest;rotatable=0;whiteSpace=wrap;html=1;fontSize=10;" parent="71" vertex="1">
                    <mxGeometry y="30" width="140" height="30" as="geometry"/>
                </mxCell>
                <mxCell id="73" value="fk_doctor_id" style="text;strokeColor=none;fillColor=none;align=left;verticalAlign=middle;spacingLeft=4;spacingRight=4;overflow=hidden;points=[[0,0.5],[1,0.5]];portConstraint=eastwest;rotatable=0;whiteSpace=wrap;html=1;fontSize=10;" parent="71" vertex="1">
                    <mxGeometry y="60" width="140" height="30" as="geometry"/>
                </mxCell>
                <mxCell id="75" style="edgeStyle=orthogonalEdgeStyle;html=1;fontSize=10;curved=1;" parent="1" source="74" target="34" edge="1">
                    <mxGeometry relative="1" as="geometry"/>
                </mxCell>
                <mxCell id="74" value="&lt;ul style=&quot;&quot;&gt;&lt;li&gt;&lt;span style=&quot;font-size: 10px;&quot;&gt;patient_id&lt;/span&gt;&lt;/li&gt;&lt;li&gt;&lt;span style=&quot;font-size: 10px;&quot;&gt;SSN&lt;/span&gt;&lt;/li&gt;&lt;li&gt;&lt;span style=&quot;font-size: 10px;&quot;&gt;Age&lt;/span&gt;&lt;/li&gt;&lt;li&gt;&lt;span style=&quot;font-size: 10px;&quot;&gt;date_of_admission&lt;/span&gt;&lt;/li&gt;&lt;/ul&gt;" style="ellipse;whiteSpace=wrap;html=1;align=left;" parent="1" vertex="1">
                    <mxGeometry x="410" y="1120" width="200" height="100" as="geometry"/>
                </mxCell>
                <mxCell id="91" style="edgeStyle=none;html=1;fontSize=10;" parent="1" source="77" target="71" edge="1">
                    <mxGeometry relative="1" as="geometry"/>
                </mxCell>
                <mxCell id="77" value="Intervention" style="swimlane;fontStyle=0;childLayout=stackLayout;horizontal=1;startSize=30;horizontalStack=0;resizeParent=1;resizeParentMax=0;resizeLast=0;collapsible=1;marginBottom=0;whiteSpace=wrap;html=1;fontSize=10;" parent="1" vertex="1">
                    <mxGeometry y="560" width="140" height="210" as="geometry"/>
                </mxCell>
                <mxCell id="78" value="Intervention_id" style="text;strokeColor=none;fillColor=none;align=left;verticalAlign=middle;spacingLeft=4;spacingRight=4;overflow=hidden;points=[[0,0.5],[1,0.5]];portConstraint=eastwest;rotatable=0;whiteSpace=wrap;html=1;fontSize=10;" parent="77" vertex="1">
                    <mxGeometry y="30" width="140" height="30" as="geometry"/>
                </mxCell>
                <mxCell id="79" value="current date" style="text;strokeColor=none;fillColor=none;align=left;verticalAlign=middle;spacingLeft=4;spacingRight=4;overflow=hidden;points=[[0,0.5],[1,0.5]];portConstraint=eastwest;rotatable=0;whiteSpace=wrap;html=1;fontSize=10;" parent="77" vertex="1">
                    <mxGeometry y="60" width="140" height="30" as="geometry"/>
                </mxCell>
                <mxCell id="80" value="observed symptoms" style="text;strokeColor=none;fillColor=none;align=left;verticalAlign=middle;spacingLeft=4;spacingRight=4;overflow=hidden;points=[[0,0.5],[1,0.5]];portConstraint=eastwest;rotatable=0;whiteSpace=wrap;html=1;fontSize=10;" parent="77" vertex="1">
                    <mxGeometry y="90" width="140" height="30" as="geometry"/>
                </mxCell>
                <mxCell id="81" value="prescribed treatment" style="text;strokeColor=none;fillColor=none;align=left;verticalAlign=middle;spacingLeft=4;spacingRight=4;overflow=hidden;points=[[0,0.5],[1,0.5]];portConstraint=eastwest;rotatable=0;whiteSpace=wrap;html=1;fontSize=10;" parent="77" vertex="1">
                    <mxGeometry y="120" width="140" height="30" as="geometry"/>
                </mxCell>
                <mxCell id="82" value="fk_patient_id" style="text;strokeColor=none;fillColor=none;align=left;verticalAlign=middle;spacingLeft=4;spacingRight=4;overflow=hidden;points=[[0,0.5],[1,0.5]];portConstraint=eastwest;rotatable=0;whiteSpace=wrap;html=1;fontSize=10;" parent="77" vertex="1">
                    <mxGeometry y="150" width="140" height="30" as="geometry"/>
                </mxCell>
                <mxCell id="83" value="fk_doctor_id" style="text;strokeColor=none;fillColor=none;align=left;verticalAlign=middle;spacingLeft=4;spacingRight=4;overflow=hidden;points=[[0,0.5],[1,0.5]];portConstraint=eastwest;rotatable=0;whiteSpace=wrap;html=1;fontSize=10;" parent="77" vertex="1">
                    <mxGeometry y="180" width="140" height="30" as="geometry"/>
                </mxCell>
                <mxCell id="93" style="edgeStyle=none;html=1;fontSize=10;" parent="1" source="84" target="68" edge="1">
                    <mxGeometry relative="1" as="geometry"/>
                </mxCell>
                <mxCell id="84" value="Intervention" style="swimlane;fontStyle=0;childLayout=stackLayout;horizontal=1;startSize=30;horizontalStack=0;resizeParent=1;resizeParentMax=0;resizeLast=0;collapsible=1;marginBottom=0;whiteSpace=wrap;html=1;fontSize=10;" parent="1" vertex="1">
                    <mxGeometry x="480" y="560" width="140" height="210" as="geometry"/>
                </mxCell>
                <mxCell id="85" value="Intervention_id" style="text;strokeColor=none;fillColor=none;align=left;verticalAlign=middle;spacingLeft=4;spacingRight=4;overflow=hidden;points=[[0,0.5],[1,0.5]];portConstraint=eastwest;rotatable=0;whiteSpace=wrap;html=1;fontSize=10;" parent="84" vertex="1">
                    <mxGeometry y="30" width="140" height="30" as="geometry"/>
                </mxCell>
                <mxCell id="86" value="current date" style="text;strokeColor=none;fillColor=none;align=left;verticalAlign=middle;spacingLeft=4;spacingRight=4;overflow=hidden;points=[[0,0.5],[1,0.5]];portConstraint=eastwest;rotatable=0;whiteSpace=wrap;html=1;fontSize=10;" parent="84" vertex="1">
                    <mxGeometry y="60" width="140" height="30" as="geometry"/>
                </mxCell>
                <mxCell id="87" value="observed symptoms" style="text;strokeColor=none;fillColor=none;align=left;verticalAlign=middle;spacingLeft=4;spacingRight=4;overflow=hidden;points=[[0,0.5],[1,0.5]];portConstraint=eastwest;rotatable=0;whiteSpace=wrap;html=1;fontSize=10;" parent="84" vertex="1">
                    <mxGeometry y="90" width="140" height="30" as="geometry"/>
                </mxCell>
                <mxCell id="88" value="prescribed treatment" style="text;strokeColor=none;fillColor=none;align=left;verticalAlign=middle;spacingLeft=4;spacingRight=4;overflow=hidden;points=[[0,0.5],[1,0.5]];portConstraint=eastwest;rotatable=0;whiteSpace=wrap;html=1;fontSize=10;" parent="84" vertex="1">
                    <mxGeometry y="120" width="140" height="30" as="geometry"/>
                </mxCell>
                <mxCell id="89" value="fk_patient_id" style="text;strokeColor=none;fillColor=none;align=left;verticalAlign=middle;spacingLeft=4;spacingRight=4;overflow=hidden;points=[[0,0.5],[1,0.5]];portConstraint=eastwest;rotatable=0;whiteSpace=wrap;html=1;fontSize=10;" parent="84" vertex="1">
                    <mxGeometry y="150" width="140" height="30" as="geometry"/>
                </mxCell>
                <mxCell id="90" value="fk_doctor_id" style="text;strokeColor=none;fillColor=none;align=left;verticalAlign=middle;spacingLeft=4;spacingRight=4;overflow=hidden;points=[[0,0.5],[1,0.5]];portConstraint=eastwest;rotatable=0;whiteSpace=wrap;html=1;fontSize=10;" parent="84" vertex="1">
                    <mxGeometry y="180" width="140" height="30" as="geometry"/>
                </mxCell>
                <mxCell id="96" style="edgeStyle=none;html=1;fontSize=10;" parent="1" source="94" target="77" edge="1">
                    <mxGeometry relative="1" as="geometry"/>
                </mxCell>
                <mxCell id="94" value="" style="shape=mxgraph.signs.healthcare.out_patient;html=1;pointerEvents=1;fillColor=#000000;strokeColor=none;verticalLabelPosition=bottom;verticalAlign=top;align=center;" parent="1" vertex="1">
                    <mxGeometry y="890" width="115" height="169" as="geometry"/>
                </mxCell>
                <mxCell id="97" style="edgeStyle=none;html=1;fontSize=10;" parent="1" source="95" target="84" edge="1">
                    <mxGeometry relative="1" as="geometry"/>
                </mxCell>
                <mxCell id="95" value="" style="shape=mxgraph.signs.healthcare.out_patient;html=1;pointerEvents=1;fillColor=#000000;strokeColor=none;verticalLabelPosition=bottom;verticalAlign=top;align=center;" parent="1" vertex="1">
                    <mxGeometry x="525" y="890" width="115" height="169" as="geometry"/>
                </mxCell>
                <mxCell id="117" style="edgeStyle=entityRelationEdgeStyle;html=1;fontSize=10;" parent="1" source="104" target="19" edge="1">
                    <mxGeometry relative="1" as="geometry"/>
                </mxCell>
                <mxCell id="104" value="ListOfDoctors" style="swimlane;fontStyle=0;childLayout=stackLayout;horizontal=1;startSize=30;horizontalStack=0;resizeParent=1;resizeParentMax=0;resizeLast=0;collapsible=1;marginBottom=0;whiteSpace=wrap;html=1;fontSize=10;" parent="1" vertex="1">
                    <mxGeometry x="262" y="-85" width="185" height="90" as="geometry"/>
                </mxCell>
                <mxCell id="105" value="fk_doctorInCharge_id" style="text;strokeColor=none;fillColor=none;align=left;verticalAlign=middle;spacingLeft=4;spacingRight=4;overflow=hidden;points=[[0,0.5],[1,0.5]];portConstraint=eastwest;rotatable=0;whiteSpace=wrap;html=1;fontSize=10;" parent="104" vertex="1">
                    <mxGeometry y="30" width="185" height="30" as="geometry"/>
                </mxCell>
                <mxCell id="106" value="fk_doctor_id" style="text;strokeColor=none;fillColor=none;align=left;verticalAlign=middle;spacingLeft=4;spacingRight=4;overflow=hidden;points=[[0,0.5],[1,0.5]];portConstraint=eastwest;rotatable=0;whiteSpace=wrap;html=1;fontSize=10;" parent="104" vertex="1">
                    <mxGeometry y="60" width="185" height="30" as="geometry"/>
                </mxCell>
                <mxCell id="110" value="&lt;ul style=&quot;&quot;&gt;&lt;li style=&quot;text-align: justify;&quot;&gt;&lt;font style=&quot;font-size: 10px;&quot;&gt;doctor_id&lt;/font&gt;&lt;/li&gt;&lt;li style=&quot;text-align: justify;&quot;&gt;&lt;font style=&quot;font-size: 10px;&quot;&gt;doctor_name&lt;/font&gt;&lt;/li&gt;&lt;li style=&quot;text-align: justify;&quot;&gt;&lt;font style=&quot;font-size: 10px;&quot;&gt;speciality&lt;/font&gt;&lt;/li&gt;&lt;li style=&quot;text-align: justify;&quot;&gt;&lt;font style=&quot;font-size: 10px;&quot;&gt;fk_docInCharge_id&lt;/font&gt;&lt;/li&gt;&lt;/ul&gt;" style="ellipse;whiteSpace=wrap;html=1;align=left;" parent="1" vertex="1">
                    <mxGeometry x="620" y="170" width="150" height="125" as="geometry"/>
                </mxCell>
                <mxCell id="113" style="edgeStyle=orthogonalEdgeStyle;html=1;fontSize=10;curved=1;" parent="1" source="112" target="22" edge="1">
                    <mxGeometry relative="1" as="geometry"/>
                </mxCell>
                <mxCell id="112" value="&lt;ul style=&quot;&quot;&gt;&lt;li style=&quot;text-align: justify;&quot;&gt;&lt;font style=&quot;font-size: 10px;&quot;&gt;doctor_id&lt;/font&gt;&lt;/li&gt;&lt;li style=&quot;text-align: justify;&quot;&gt;&lt;font style=&quot;font-size: 10px;&quot;&gt;doctor_name&lt;/font&gt;&lt;/li&gt;&lt;li style=&quot;text-align: justify;&quot;&gt;&lt;font style=&quot;font-size: 10px;&quot;&gt;speciality&lt;/font&gt;&lt;/li&gt;&lt;li style=&quot;text-align: justify;&quot;&gt;&lt;font style=&quot;font-size: 10px;&quot;&gt;fk_docInCharge_id&lt;/font&gt;&lt;/li&gt;&lt;/ul&gt;" style="ellipse;whiteSpace=wrap;html=1;align=left;" parent="1" vertex="1">
                    <mxGeometry x="-150" y="200" width="150" height="125" as="geometry"/>
                </mxCell>
                <mxCell id="256" value="Unit" style="shape=cylinder3;whiteSpace=wrap;html=1;boundedLbl=1;backgroundOutline=1;size=21.761875697544667;" parent="1" vertex="1">
                    <mxGeometry x="1215" y="-480" width="130" height="150" as="geometry"/>
                </mxCell>
                <mxCell id="257" value="unit_id" style="shape=umlBoundary;whiteSpace=wrap;html=1;" parent="1" vertex="1">
                    <mxGeometry x="1345" y="-451.25" width="70" height="47.5" as="geometry"/>
                </mxCell>
                <mxCell id="258" value="Floor" style="html=1;rounded=0;" parent="1" vertex="1">
                    <mxGeometry x="1125" y="-455" width="90" height="55" as="geometry"/>
                </mxCell>
                <mxCell id="259" value="" style="endArrow=none;html=1;rounded=0;align=center;verticalAlign=top;endFill=0;labelBackgroundColor=none;endSize=2;" parent="1" target="260" edge="1">
                    <mxGeometry relative="1" as="geometry">
                        <mxPoint x="1215" y="-413.53448275862047" as="sourcePoint"/>
                    </mxGeometry>
                </mxCell>
                <mxCell id="260" value="" style="shape=requiredInterface;html=1;fontSize=11;align=center;fillColor=none;points=[];aspect=fixed;resizable=0;verticalAlign=bottom;labelPosition=center;verticalLabelPosition=top;flipH=1;" parent="1" vertex="1">
                    <mxGeometry x="1240" y="-410" width="5" height="10" as="geometry"/>
                </mxCell>
                <mxCell id="261" style="edgeStyle=none;html=1;fontSize=10;" parent="1" source="262" target="256" edge="1">
                    <mxGeometry relative="1" as="geometry"/>
                </mxCell>
                <mxCell id="262" value="" style="image;html=1;image=img/lib/clip_art/people/Doctor_Man_128x128.png" parent="1" vertex="1">
                    <mxGeometry x="1210" y="-260" width="140" height="120" as="geometry"/>
                </mxCell>
                <mxCell id="263" style="edgeStyle=orthogonalEdgeStyle;curved=1;html=1;fontSize=10;" parent="1" source="264" target="319" edge="1">
                    <mxGeometry relative="1" as="geometry"/>
                </mxCell>
                <mxCell id="264" value="" style="image;html=1;image=img/lib/clip_art/people/Doctor_Man_128x128.png" parent="1" vertex="1">
                    <mxGeometry x="960" y="120" width="80" height="80" as="geometry"/>
                </mxCell>
                <mxCell id="265" style="edgeStyle=orthogonalEdgeStyle;curved=1;html=1;fontSize=10;" parent="1" source="266" target="319" edge="1">
                    <mxGeometry relative="1" as="geometry"/>
                </mxCell>
                <mxCell id="266" value="" style="image;html=1;image=img/lib/clip_art/people/Doctor_Man_128x128.png" parent="1" vertex="1">
                    <mxGeometry x="1202" y="140" width="85" height="80" as="geometry"/>
                </mxCell>
                <mxCell id="267" style="edgeStyle=orthogonalEdgeStyle;curved=1;html=1;fontSize=10;" parent="1" source="268" target="319" edge="1">
                    <mxGeometry relative="1" as="geometry"/>
                </mxCell>
                <mxCell id="268" value="" style="image;html=1;image=img/lib/clip_art/people/Doctor_Man_128x128.png" parent="1" vertex="1">
                    <mxGeometry x="1435" y="130" width="80" height="80" as="geometry"/>
                </mxCell>
                <mxCell id="269" style="html=1;fontSize=10;" parent="1" source="270" target="281" edge="1">
                    <mxGeometry relative="1" as="geometry"/>
                </mxCell>
                <mxCell id="270" value="" style="shape=mxgraph.signs.healthcare.out_patient;html=1;pointerEvents=1;fillColor=#000000;strokeColor=none;verticalLabelPosition=bottom;verticalAlign=top;align=center;" parent="1" vertex="1">
                    <mxGeometry x="1190" y="890" width="115" height="169" as="geometry"/>
                </mxCell>
                <mxCell id="271" style="edgeStyle=orthogonalEdgeStyle;html=1;fontSize=10;curved=1;" parent="1" source="322" target="268" edge="1">
                    <mxGeometry relative="1" as="geometry">
                        <mxPoint x="1620" y="145" as="sourcePoint"/>
                    </mxGeometry>
                </mxCell>
                <mxCell id="272" style="edgeStyle=orthogonalEdgeStyle;curved=1;html=1;fontSize=10;" parent="1" source="273" target="262" edge="1">
                    <mxGeometry relative="1" as="geometry"/>
                </mxCell>
                <mxCell id="273" value="&lt;ul style=&quot;&quot;&gt;&lt;li style=&quot;text-align: justify;&quot;&gt;&lt;font style=&quot;font-size: 10px;&quot;&gt;doctorInCharge_id&lt;/font&gt;&lt;/li&gt;&lt;li style=&quot;text-align: justify;&quot;&gt;&lt;font style=&quot;font-size: 10px;&quot;&gt;doctor_name&lt;/font&gt;&lt;/li&gt;&lt;li style=&quot;text-align: justify;&quot;&gt;&lt;font style=&quot;font-size: 10px;&quot;&gt;speciality&lt;/font&gt;&lt;/li&gt;&lt;li style=&quot;text-align: justify;&quot;&gt;&lt;font style=&quot;font-size: 10px;&quot;&gt;fk_unit_id&lt;/font&gt;&lt;/li&gt;&lt;li style=&quot;text-align: justify;&quot;&gt;&lt;font style=&quot;font-size: 10px;&quot;&gt;fk_listofdoctors&lt;/font&gt;&lt;/li&gt;&lt;/ul&gt;" style="ellipse;whiteSpace=wrap;html=1;align=left;" parent="1" vertex="1">
                    <mxGeometry x="990" y="-340" width="150" height="140" as="geometry"/>
                </mxCell>
                <mxCell id="274" style="edgeStyle=orthogonalEdgeStyle;curved=1;html=1;fontSize=10;" parent="1" source="275" target="266" edge="1">
                    <mxGeometry relative="1" as="geometry"/>
                </mxCell>
                <mxCell id="275" value="&lt;ul style=&quot;&quot;&gt;&lt;li style=&quot;text-align: justify;&quot;&gt;&lt;font style=&quot;font-size: 10px;&quot;&gt;doctor_id&lt;/font&gt;&lt;/li&gt;&lt;li style=&quot;text-align: justify;&quot;&gt;&lt;font style=&quot;font-size: 10px;&quot;&gt;doctor_name&lt;/font&gt;&lt;/li&gt;&lt;li style=&quot;text-align: justify;&quot;&gt;&lt;font style=&quot;font-size: 10px;&quot;&gt;speciality&lt;/font&gt;&lt;/li&gt;&lt;li style=&quot;text-align: justify;&quot;&gt;&lt;font style=&quot;font-size: 10px;&quot;&gt;fk_docInCharge_id&lt;/font&gt;&lt;/li&gt;&lt;/ul&gt;" style="ellipse;whiteSpace=wrap;html=1;align=left;" parent="1" vertex="1">
                    <mxGeometry x="1285" y="210" width="150" height="125" as="geometry"/>
                </mxCell>
                <mxCell id="276" style="edgeStyle=none;html=1;fontSize=10;" parent="1" source="277" target="266" edge="1">
                    <mxGeometry relative="1" as="geometry"/>
                </mxCell>
                <mxCell id="277" value="List-of-Intervention" style="swimlane;fontStyle=0;childLayout=stackLayout;horizontal=1;startSize=30;horizontalStack=0;resizeParent=1;resizeParentMax=0;resizeLast=0;collapsible=1;marginBottom=0;whiteSpace=wrap;html=1;fontSize=10;" parent="1" vertex="1">
                    <mxGeometry x="1174.5" y="390" width="140" height="90" as="geometry"/>
                </mxCell>
                <mxCell id="278" value="fk_Intervention_id1" style="text;strokeColor=none;fillColor=none;align=left;verticalAlign=middle;spacingLeft=4;spacingRight=4;overflow=hidden;points=[[0,0.5],[1,0.5]];portConstraint=eastwest;rotatable=0;whiteSpace=wrap;html=1;fontSize=10;" parent="277" vertex="1">
                    <mxGeometry y="30" width="140" height="30" as="geometry"/>
                </mxCell>
                <mxCell id="279" value="fk_doctor_id" style="text;strokeColor=none;fillColor=none;align=left;verticalAlign=middle;spacingLeft=4;spacingRight=4;overflow=hidden;points=[[0,0.5],[1,0.5]];portConstraint=eastwest;rotatable=0;whiteSpace=wrap;html=1;fontSize=10;" parent="277" vertex="1">
                    <mxGeometry y="60" width="140" height="30" as="geometry"/>
                </mxCell>
                <mxCell id="280" style="edgeStyle=none;html=1;fontSize=10;" parent="1" source="281" target="277" edge="1">
                    <mxGeometry relative="1" as="geometry"/>
                </mxCell>
                <mxCell id="281" value="Intervention" style="swimlane;fontStyle=0;childLayout=stackLayout;horizontal=1;startSize=30;horizontalStack=0;resizeParent=1;resizeParentMax=0;resizeLast=0;collapsible=1;marginBottom=0;whiteSpace=wrap;html=1;fontSize=10;" parent="1" vertex="1">
                    <mxGeometry x="1174.5" y="560" width="140" height="210" as="geometry"/>
                </mxCell>
                <mxCell id="282" value="Intervention_id" style="text;strokeColor=none;fillColor=none;align=left;verticalAlign=middle;spacingLeft=4;spacingRight=4;overflow=hidden;points=[[0,0.5],[1,0.5]];portConstraint=eastwest;rotatable=0;whiteSpace=wrap;html=1;fontSize=10;" parent="281" vertex="1">
                    <mxGeometry y="30" width="140" height="30" as="geometry"/>
                </mxCell>
                <mxCell id="283" value="current date" style="text;strokeColor=none;fillColor=none;align=left;verticalAlign=middle;spacingLeft=4;spacingRight=4;overflow=hidden;points=[[0,0.5],[1,0.5]];portConstraint=eastwest;rotatable=0;whiteSpace=wrap;html=1;fontSize=10;" parent="281" vertex="1">
                    <mxGeometry y="60" width="140" height="30" as="geometry"/>
                </mxCell>
                <mxCell id="284" value="observed symptoms" style="text;strokeColor=none;fillColor=none;align=left;verticalAlign=middle;spacingLeft=4;spacingRight=4;overflow=hidden;points=[[0,0.5],[1,0.5]];portConstraint=eastwest;rotatable=0;whiteSpace=wrap;html=1;fontSize=10;" parent="281" vertex="1">
                    <mxGeometry y="90" width="140" height="30" as="geometry"/>
                </mxCell>
                <mxCell id="285" value="prescribed treatment" style="text;strokeColor=none;fillColor=none;align=left;verticalAlign=middle;spacingLeft=4;spacingRight=4;overflow=hidden;points=[[0,0.5],[1,0.5]];portConstraint=eastwest;rotatable=0;whiteSpace=wrap;html=1;fontSize=10;" parent="281" vertex="1">
                    <mxGeometry y="120" width="140" height="30" as="geometry"/>
                </mxCell>
                <mxCell id="286" value="fk_patient_id" style="text;strokeColor=none;fillColor=none;align=left;verticalAlign=middle;spacingLeft=4;spacingRight=4;overflow=hidden;points=[[0,0.5],[1,0.5]];portConstraint=eastwest;rotatable=0;whiteSpace=wrap;html=1;fontSize=10;" parent="281" vertex="1">
                    <mxGeometry y="150" width="140" height="30" as="geometry"/>
                </mxCell>
                <mxCell id="287" value="fk_doctor_id" style="text;strokeColor=none;fillColor=none;align=left;verticalAlign=middle;spacingLeft=4;spacingRight=4;overflow=hidden;points=[[0,0.5],[1,0.5]];portConstraint=eastwest;rotatable=0;whiteSpace=wrap;html=1;fontSize=10;" parent="281" vertex="1">
                    <mxGeometry y="180" width="140" height="30" as="geometry"/>
                </mxCell>
                <mxCell id="288" style="edgeStyle=none;html=1;fontSize=10;" parent="1" source="289" target="268" edge="1">
                    <mxGeometry relative="1" as="geometry"/>
                </mxCell>
                <mxCell id="289" value="List-of-Intervention" style="swimlane;fontStyle=0;childLayout=stackLayout;horizontal=1;startSize=30;horizontalStack=0;resizeParent=1;resizeParentMax=0;resizeLast=0;collapsible=1;marginBottom=0;whiteSpace=wrap;html=1;fontSize=10;" parent="1" vertex="1">
                    <mxGeometry x="1410" y="390" width="140" height="90" as="geometry"/>
                </mxCell>
                <mxCell id="290" value="fk_Intervention_id1" style="text;strokeColor=none;fillColor=none;align=left;verticalAlign=middle;spacingLeft=4;spacingRight=4;overflow=hidden;points=[[0,0.5],[1,0.5]];portConstraint=eastwest;rotatable=0;whiteSpace=wrap;html=1;fontSize=10;" parent="289" vertex="1">
                    <mxGeometry y="30" width="140" height="30" as="geometry"/>
                </mxCell>
                <mxCell id="291" value="fk_doctor_id" style="text;strokeColor=none;fillColor=none;align=left;verticalAlign=middle;spacingLeft=4;spacingRight=4;overflow=hidden;points=[[0,0.5],[1,0.5]];portConstraint=eastwest;rotatable=0;whiteSpace=wrap;html=1;fontSize=10;" parent="289" vertex="1">
                    <mxGeometry y="60" width="140" height="30" as="geometry"/>
                </mxCell>
                <mxCell id="292" style="edgeStyle=none;html=1;fontSize=10;" parent="1" source="293" target="264" edge="1">
                    <mxGeometry relative="1" as="geometry"/>
                </mxCell>
                <mxCell id="293" value="List-of-Intervention" style="swimlane;fontStyle=0;childLayout=stackLayout;horizontal=1;startSize=30;horizontalStack=0;resizeParent=1;resizeParentMax=0;resizeLast=0;collapsible=1;marginBottom=0;whiteSpace=wrap;html=1;fontSize=10;" parent="1" vertex="1">
                    <mxGeometry x="950" y="390" width="140" height="90" as="geometry"/>
                </mxCell>
                <mxCell id="294" value="fk_Intervention_id1" style="text;strokeColor=none;fillColor=none;align=left;verticalAlign=middle;spacingLeft=4;spacingRight=4;overflow=hidden;points=[[0,0.5],[1,0.5]];portConstraint=eastwest;rotatable=0;whiteSpace=wrap;html=1;fontSize=10;" parent="293" vertex="1">
                    <mxGeometry y="30" width="140" height="30" as="geometry"/>
                </mxCell>
                <mxCell id="295" value="fk_doctor_id" style="text;strokeColor=none;fillColor=none;align=left;verticalAlign=middle;spacingLeft=4;spacingRight=4;overflow=hidden;points=[[0,0.5],[1,0.5]];portConstraint=eastwest;rotatable=0;whiteSpace=wrap;html=1;fontSize=10;" parent="293" vertex="1">
                    <mxGeometry y="60" width="140" height="30" as="geometry"/>
                </mxCell>
                <mxCell id="296" style="edgeStyle=orthogonalEdgeStyle;html=1;fontSize=10;curved=1;" parent="1" source="297" target="270" edge="1">
                    <mxGeometry relative="1" as="geometry"/>
                </mxCell>
                <mxCell id="297" value="&lt;ul style=&quot;&quot;&gt;&lt;li&gt;&lt;span style=&quot;font-size: 10px;&quot;&gt;patient_id&lt;/span&gt;&lt;/li&gt;&lt;li&gt;&lt;span style=&quot;font-size: 10px;&quot;&gt;SSN&lt;/span&gt;&lt;/li&gt;&lt;li&gt;&lt;span style=&quot;font-size: 10px;&quot;&gt;Age&lt;/span&gt;&lt;/li&gt;&lt;li&gt;&lt;span style=&quot;font-size: 10px;&quot;&gt;date_of_admission&lt;/span&gt;&lt;/li&gt;&lt;/ul&gt;" style="ellipse;whiteSpace=wrap;html=1;align=left;" parent="1" vertex="1">
                    <mxGeometry x="1350" y="1120" width="200" height="100" as="geometry"/>
                </mxCell>
                <mxCell id="298" style="edgeStyle=none;html=1;fontSize=10;" parent="1" source="299" target="293" edge="1">
                    <mxGeometry relative="1" as="geometry"/>
                </mxCell>
                <mxCell id="299" value="Intervention" style="swimlane;fontStyle=0;childLayout=stackLayout;horizontal=1;startSize=30;horizontalStack=0;resizeParent=1;resizeParentMax=0;resizeLast=0;collapsible=1;marginBottom=0;whiteSpace=wrap;html=1;fontSize=10;" parent="1" vertex="1">
                    <mxGeometry x="940" y="560" width="140" height="210" as="geometry"/>
                </mxCell>
                <mxCell id="300" value="Intervention_id" style="text;strokeColor=none;fillColor=none;align=left;verticalAlign=middle;spacingLeft=4;spacingRight=4;overflow=hidden;points=[[0,0.5],[1,0.5]];portConstraint=eastwest;rotatable=0;whiteSpace=wrap;html=1;fontSize=10;" parent="299" vertex="1">
                    <mxGeometry y="30" width="140" height="30" as="geometry"/>
                </mxCell>
                <mxCell id="301" value="current date" style="text;strokeColor=none;fillColor=none;align=left;verticalAlign=middle;spacingLeft=4;spacingRight=4;overflow=hidden;points=[[0,0.5],[1,0.5]];portConstraint=eastwest;rotatable=0;whiteSpace=wrap;html=1;fontSize=10;" parent="299" vertex="1">
                    <mxGeometry y="60" width="140" height="30" as="geometry"/>
                </mxCell>
                <mxCell id="302" value="observed symptoms" style="text;strokeColor=none;fillColor=none;align=left;verticalAlign=middle;spacingLeft=4;spacingRight=4;overflow=hidden;points=[[0,0.5],[1,0.5]];portConstraint=eastwest;rotatable=0;whiteSpace=wrap;html=1;fontSize=10;" parent="299" vertex="1">
                    <mxGeometry y="90" width="140" height="30" as="geometry"/>
                </mxCell>
                <mxCell id="303" value="prescribed treatment" style="text;strokeColor=none;fillColor=none;align=left;verticalAlign=middle;spacingLeft=4;spacingRight=4;overflow=hidden;points=[[0,0.5],[1,0.5]];portConstraint=eastwest;rotatable=0;whiteSpace=wrap;html=1;fontSize=10;" parent="299" vertex="1">
                    <mxGeometry y="120" width="140" height="30" as="geometry"/>
                </mxCell>
                <mxCell id="304" value="fk_patient_id" style="text;strokeColor=none;fillColor=none;align=left;verticalAlign=middle;spacingLeft=4;spacingRight=4;overflow=hidden;points=[[0,0.5],[1,0.5]];portConstraint=eastwest;rotatable=0;whiteSpace=wrap;html=1;fontSize=10;" parent="299" vertex="1">
                    <mxGeometry y="150" width="140" height="30" as="geometry"/>
                </mxCell>
                <mxCell id="305" value="fk_doctor_id" style="text;strokeColor=none;fillColor=none;align=left;verticalAlign=middle;spacingLeft=4;spacingRight=4;overflow=hidden;points=[[0,0.5],[1,0.5]];portConstraint=eastwest;rotatable=0;whiteSpace=wrap;html=1;fontSize=10;" parent="299" vertex="1">
                    <mxGeometry y="180" width="140" height="30" as="geometry"/>
                </mxCell>
                <mxCell id="306" style="edgeStyle=none;html=1;fontSize=10;" parent="1" source="307" target="289" edge="1">
                    <mxGeometry relative="1" as="geometry"/>
                </mxCell>
                <mxCell id="307" value="Intervention" style="swimlane;fontStyle=0;childLayout=stackLayout;horizontal=1;startSize=30;horizontalStack=0;resizeParent=1;resizeParentMax=0;resizeLast=0;collapsible=1;marginBottom=0;whiteSpace=wrap;html=1;fontSize=10;" parent="1" vertex="1">
                    <mxGeometry x="1420" y="560" width="140" height="210" as="geometry"/>
                </mxCell>
                <mxCell id="308" value="Intervention_id" style="text;strokeColor=none;fillColor=none;align=left;verticalAlign=middle;spacingLeft=4;spacingRight=4;overflow=hidden;points=[[0,0.5],[1,0.5]];portConstraint=eastwest;rotatable=0;whiteSpace=wrap;html=1;fontSize=10;" parent="307" vertex="1">
                    <mxGeometry y="30" width="140" height="30" as="geometry"/>
                </mxCell>
                <mxCell id="309" value="current date" style="text;strokeColor=none;fillColor=none;align=left;verticalAlign=middle;spacingLeft=4;spacingRight=4;overflow=hidden;points=[[0,0.5],[1,0.5]];portConstraint=eastwest;rotatable=0;whiteSpace=wrap;html=1;fontSize=10;" parent="307" vertex="1">
                    <mxGeometry y="60" width="140" height="30" as="geometry"/>
                </mxCell>
                <mxCell id="310" value="observed symptoms" style="text;strokeColor=none;fillColor=none;align=left;verticalAlign=middle;spacingLeft=4;spacingRight=4;overflow=hidden;points=[[0,0.5],[1,0.5]];portConstraint=eastwest;rotatable=0;whiteSpace=wrap;html=1;fontSize=10;" parent="307" vertex="1">
                    <mxGeometry y="90" width="140" height="30" as="geometry"/>
                </mxCell>
                <mxCell id="311" value="prescribed treatment" style="text;strokeColor=none;fillColor=none;align=left;verticalAlign=middle;spacingLeft=4;spacingRight=4;overflow=hidden;points=[[0,0.5],[1,0.5]];portConstraint=eastwest;rotatable=0;whiteSpace=wrap;html=1;fontSize=10;" parent="307" vertex="1">
                    <mxGeometry y="120" width="140" height="30" as="geometry"/>
                </mxCell>
                <mxCell id="312" value="fk_patient_id" style="text;strokeColor=none;fillColor=none;align=left;verticalAlign=middle;spacingLeft=4;spacingRight=4;overflow=hidden;points=[[0,0.5],[1,0.5]];portConstraint=eastwest;rotatable=0;whiteSpace=wrap;html=1;fontSize=10;" parent="307" vertex="1">
                    <mxGeometry y="150" width="140" height="30" as="geometry"/>
                </mxCell>
                <mxCell id="313" value="fk_doctor_id" style="text;strokeColor=none;fillColor=none;align=left;verticalAlign=middle;spacingLeft=4;spacingRight=4;overflow=hidden;points=[[0,0.5],[1,0.5]];portConstraint=eastwest;rotatable=0;whiteSpace=wrap;html=1;fontSize=10;" parent="307" vertex="1">
                    <mxGeometry y="180" width="140" height="30" as="geometry"/>
                </mxCell>
                <mxCell id="314" style="edgeStyle=none;html=1;fontSize=10;" parent="1" source="315" target="299" edge="1">
                    <mxGeometry relative="1" as="geometry"/>
                </mxCell>
                <mxCell id="315" value="" style="shape=mxgraph.signs.healthcare.out_patient;html=1;pointerEvents=1;fillColor=#000000;strokeColor=none;verticalLabelPosition=bottom;verticalAlign=top;align=center;" parent="1" vertex="1">
                    <mxGeometry x="940" y="890" width="115" height="169" as="geometry"/>
                </mxCell>
                <mxCell id="316" style="edgeStyle=none;html=1;fontSize=10;" parent="1" source="317" target="307" edge="1">
                    <mxGeometry relative="1" as="geometry"/>
                </mxCell>
                <mxCell id="317" value="" style="shape=mxgraph.signs.healthcare.out_patient;html=1;pointerEvents=1;fillColor=#000000;strokeColor=none;verticalLabelPosition=bottom;verticalAlign=top;align=center;" parent="1" vertex="1">
                    <mxGeometry x="1465" y="890" width="115" height="169" as="geometry"/>
                </mxCell>
                <mxCell id="318" style="edgeStyle=entityRelationEdgeStyle;html=1;fontSize=10;" parent="1" source="319" target="262" edge="1">
                    <mxGeometry relative="1" as="geometry"/>
                </mxCell>
                <mxCell id="319" value="ListOfDoctors" style="swimlane;fontStyle=0;childLayout=stackLayout;horizontal=1;startSize=30;horizontalStack=0;resizeParent=1;resizeParentMax=0;resizeLast=0;collapsible=1;marginBottom=0;whiteSpace=wrap;html=1;fontSize=10;" parent="1" vertex="1">
                    <mxGeometry x="1202" y="-85" width="185" height="90" as="geometry"/>
                </mxCell>
                <mxCell id="320" value="fk_doctorInCharge_id" style="text;strokeColor=none;fillColor=none;align=left;verticalAlign=middle;spacingLeft=4;spacingRight=4;overflow=hidden;points=[[0,0.5],[1,0.5]];portConstraint=eastwest;rotatable=0;whiteSpace=wrap;html=1;fontSize=10;" parent="319" vertex="1">
                    <mxGeometry y="30" width="185" height="30" as="geometry"/>
                </mxCell>
                <mxCell id="321" value="fk_doctor_id" style="text;strokeColor=none;fillColor=none;align=left;verticalAlign=middle;spacingLeft=4;spacingRight=4;overflow=hidden;points=[[0,0.5],[1,0.5]];portConstraint=eastwest;rotatable=0;whiteSpace=wrap;html=1;fontSize=10;" parent="319" vertex="1">
                    <mxGeometry y="60" width="185" height="30" as="geometry"/>
                </mxCell>
                <mxCell id="322" value="&lt;ul style=&quot;&quot;&gt;&lt;li style=&quot;text-align: justify;&quot;&gt;&lt;font style=&quot;font-size: 10px;&quot;&gt;doctor_id&lt;/font&gt;&lt;/li&gt;&lt;li style=&quot;text-align: justify;&quot;&gt;&lt;font style=&quot;font-size: 10px;&quot;&gt;doctor_name&lt;/font&gt;&lt;/li&gt;&lt;li style=&quot;text-align: justify;&quot;&gt;&lt;font style=&quot;font-size: 10px;&quot;&gt;speciality&lt;/font&gt;&lt;/li&gt;&lt;li style=&quot;text-align: justify;&quot;&gt;&lt;font style=&quot;font-size: 10px;&quot;&gt;fk_docInCharge_id&lt;/font&gt;&lt;/li&gt;&lt;/ul&gt;" style="ellipse;whiteSpace=wrap;html=1;align=left;" parent="1" vertex="1">
                    <mxGeometry x="1560" y="170" width="150" height="125" as="geometry"/>
                </mxCell>
                <mxCell id="323" style="edgeStyle=orthogonalEdgeStyle;html=1;fontSize=10;curved=1;" parent="1" source="324" target="264" edge="1">
                    <mxGeometry relative="1" as="geometry"/>
                </mxCell>
                <mxCell id="324" value="&lt;ul style=&quot;&quot;&gt;&lt;li style=&quot;text-align: justify;&quot;&gt;&lt;font style=&quot;font-size: 10px;&quot;&gt;doctor_id&lt;/font&gt;&lt;/li&gt;&lt;li style=&quot;text-align: justify;&quot;&gt;&lt;font style=&quot;font-size: 10px;&quot;&gt;doctor_name&lt;/font&gt;&lt;/li&gt;&lt;li style=&quot;text-align: justify;&quot;&gt;&lt;font style=&quot;font-size: 10px;&quot;&gt;speciality&lt;/font&gt;&lt;/li&gt;&lt;li style=&quot;text-align: justify;&quot;&gt;&lt;font style=&quot;font-size: 10px;&quot;&gt;fk_docInCharge_id&lt;/font&gt;&lt;/li&gt;&lt;/ul&gt;" style="ellipse;whiteSpace=wrap;html=1;align=left;" parent="1" vertex="1">
                    <mxGeometry x="1052" y="240" width="150" height="125" as="geometry"/>
                </mxCell>
            </root>
        </mxGraphModel>
    </diagram>
    <diagram id="aJiWqCVXV4NBnjZNcwlM" name="ERM">
        <mxGraphModel dx="1256" dy="1931" grid="1" gridSize="10" guides="1" tooltips="1" connect="1" arrows="1" fold="1" page="1" pageScale="1" pageWidth="827" pageHeight="1169" math="0" shadow="0">
            <root>
                <mxCell id="0"/>
                <mxCell id="1" parent="0"/>
                <mxCell id="oZPEW25W5SpDKZrFHcVB-33" style="edgeStyle=elbowEdgeStyle;html=1;fontSize=10;" parent="1" source="RePZH53v5feXMUeI0gV3-1" target="RePZH53v5feXMUeI0gV3-6" edge="1">
                    <mxGeometry relative="1" as="geometry"/>
                </mxCell>
                <mxCell id="RePZH53v5feXMUeI0gV3-1" value="&lt;font style=&quot;font-size: 18px;&quot;&gt;Unit&lt;/font&gt;" style="rounded=1;arcSize=10;whiteSpace=wrap;html=1;align=center;fontSize=10;" parent="1" vertex="1">
                    <mxGeometry x="300" y="-70" width="120" height="110" as="geometry"/>
                </mxCell>
                <mxCell id="oZPEW25W5SpDKZrFHcVB-31" style="edgeStyle=elbowEdgeStyle;html=1;fontSize=10;" parent="1" source="RePZH53v5feXMUeI0gV3-3" target="oZPEW25W5SpDKZrFHcVB-11" edge="1">
                    <mxGeometry relative="1" as="geometry"/>
                </mxCell>
                <mxCell id="RePZH53v5feXMUeI0gV3-3" value="Floor" style="rounded=1;arcSize=10;whiteSpace=wrap;html=1;align=center;fontSize=18;" parent="1" vertex="1">
                    <mxGeometry x="100" y="-330" width="520" height="60" as="geometry"/>
                </mxCell>
                <mxCell id="RePZH53v5feXMUeI0gV3-6" value="&lt;font style=&quot;font-size: 14px;&quot;&gt;DoctorInCharge&lt;/font&gt;" style="rounded=1;arcSize=10;whiteSpace=wrap;html=1;align=center;fontSize=18;" parent="1" vertex="1">
                    <mxGeometry x="300" y="110" width="120" height="60" as="geometry"/>
                </mxCell>
                <mxCell id="szQXuUHpc0Q5rHjYoiLO-7" style="edgeStyle=elbowEdgeStyle;html=1;fontSize=10;endArrow=classic;endFill=1;" parent="1" source="RePZH53v5feXMUeI0gV3-13" target="RePZH53v5feXMUeI0gV3-15" edge="1">
                    <mxGeometry relative="1" as="geometry"/>
                </mxCell>
                <mxCell id="RePZH53v5feXMUeI0gV3-13" value="&lt;font style=&quot;font-size: 10px;&quot;&gt;Doctor&lt;/font&gt;" style="rounded=1;arcSize=10;whiteSpace=wrap;html=1;align=center;fontSize=14;" parent="1" vertex="1">
                    <mxGeometry x="316.25" y="360" width="87.5" height="60" as="geometry"/>
                </mxCell>
                <mxCell id="szQXuUHpc0Q5rHjYoiLO-4" style="edgeStyle=elbowEdgeStyle;html=1;fontSize=10;" parent="1" source="RePZH53v5feXMUeI0gV3-15" target="RePZH53v5feXMUeI0gV3-6" edge="1">
                    <mxGeometry relative="1" as="geometry"/>
                </mxCell>
                <mxCell id="RePZH53v5feXMUeI0gV3-15" value="Doctor's DoctorInCharge" style="shape=note;size=20;whiteSpace=wrap;html=1;fontSize=10;" parent="1" vertex="1">
                    <mxGeometry x="310" y="210" width="100" height="100" as="geometry"/>
                </mxCell>
                <mxCell id="szQXuUHpc0Q5rHjYoiLO-23" style="edgeStyle=elbowEdgeStyle;html=1;fontSize=10;endArrow=none;endFill=0;startArrow=ERoneToMany;startFill=0;elbow=vertical;" parent="1" source="oZPEW25W5SpDKZrFHcVB-1" target="RePZH53v5feXMUeI0gV3-13" edge="1">
                    <mxGeometry relative="1" as="geometry">
                        <Array as="points">
                            <mxPoint x="260" y="460"/>
                        </Array>
                    </mxGeometry>
                </mxCell>
                <mxCell id="oZPEW25W5SpDKZrFHcVB-1" value="intervention's doctor" style="shape=note;size=20;whiteSpace=wrap;html=1;fontSize=10;" parent="1" vertex="1">
                    <mxGeometry x="310" y="470" width="100" height="100" as="geometry"/>
                </mxCell>
                <mxCell id="oZPEW25W5SpDKZrFHcVB-2" value="&lt;font style=&quot;font-size: 10px;&quot;&gt;Intervention&lt;/font&gt;" style="rounded=1;arcSize=10;whiteSpace=wrap;html=1;align=center;fontSize=14;" parent="1" vertex="1">
                    <mxGeometry x="322.5" y="620" width="75" height="90" as="geometry"/>
                </mxCell>
                <mxCell id="szQXuUHpc0Q5rHjYoiLO-39" style="edgeStyle=orthogonalEdgeStyle;curved=1;html=1;fontSize=10;endArrow=classic;endFill=1;" parent="1" source="oZPEW25W5SpDKZrFHcVB-3" target="szQXuUHpc0Q5rHjYoiLO-37" edge="1">
                    <mxGeometry relative="1" as="geometry"/>
                </mxCell>
                <mxCell id="oZPEW25W5SpDKZrFHcVB-3" value="&lt;font style=&quot;font-size: 10px;&quot;&gt;Patient&lt;/font&gt;" style="rounded=1;arcSize=10;whiteSpace=wrap;html=1;align=center;fontSize=14;" parent="1" vertex="1">
                    <mxGeometry x="322.5" y="870" width="75" height="50" as="geometry"/>
                </mxCell>
                <mxCell id="szQXuUHpc0Q5rHjYoiLO-40" style="edgeStyle=orthogonalEdgeStyle;curved=1;html=1;fontSize=10;endArrow=classic;endFill=1;" parent="1" source="oZPEW25W5SpDKZrFHcVB-4" target="oZPEW25W5SpDKZrFHcVB-3" edge="1">
                    <mxGeometry relative="1" as="geometry"/>
                </mxCell>
                <mxCell id="oZPEW25W5SpDKZrFHcVB-4" value="patient_id" style="ellipse;whiteSpace=wrap;html=1;align=center;fontStyle=4;fontSize=10;" parent="1" vertex="1">
                    <mxGeometry x="360" y="970" width="70" height="30" as="geometry"/>
                </mxCell>
                <mxCell id="oZPEW25W5SpDKZrFHcVB-29" style="edgeStyle=orthogonalEdgeStyle;html=1;fontSize=10;curved=1;" parent="1" source="oZPEW25W5SpDKZrFHcVB-6" target="RePZH53v5feXMUeI0gV3-6" edge="1">
                    <mxGeometry relative="1" as="geometry"/>
                </mxCell>
                <mxCell id="oZPEW25W5SpDKZrFHcVB-6" value="doctorInCharge_id" style="ellipse;whiteSpace=wrap;html=1;align=center;fontStyle=4;fontSize=10;" parent="1" vertex="1">
                    <mxGeometry x="180" y="60" width="97" height="40" as="geometry"/>
                </mxCell>
                <mxCell id="szQXuUHpc0Q5rHjYoiLO-9" style="edgeStyle=orthogonalEdgeStyle;html=1;fontSize=10;endArrow=classic;endFill=1;curved=1;" parent="1" source="oZPEW25W5SpDKZrFHcVB-7" target="RePZH53v5feXMUeI0gV3-15" edge="1">
                    <mxGeometry relative="1" as="geometry"/>
                </mxCell>
                <mxCell id="oZPEW25W5SpDKZrFHcVB-7" value="fk_doctorInCharge_id" style="ellipse;whiteSpace=wrap;html=1;align=center;fontStyle=4;fontSize=10;" parent="1" vertex="1">
                    <mxGeometry x="453.5" y="170" width="110" height="40" as="geometry"/>
                </mxCell>
                <mxCell id="szQXuUHpc0Q5rHjYoiLO-30" style="edgeStyle=orthogonalEdgeStyle;curved=1;html=1;fontSize=10;endArrow=classic;endFill=1;" parent="1" source="oZPEW25W5SpDKZrFHcVB-8" target="oZPEW25W5SpDKZrFHcVB-2" edge="1">
                    <mxGeometry relative="1" as="geometry"/>
                </mxCell>
                <mxCell id="oZPEW25W5SpDKZrFHcVB-8" value="intervention_id" style="ellipse;whiteSpace=wrap;html=1;align=center;fontStyle=4;fontSize=10;" parent="1" vertex="1">
                    <mxGeometry x="590" y="590" width="86" height="40" as="geometry"/>
                </mxCell>
                <mxCell id="oZPEW25W5SpDKZrFHcVB-16" style="edgeStyle=orthogonalEdgeStyle;curved=1;html=1;fontSize=10;" parent="1" source="oZPEW25W5SpDKZrFHcVB-9" target="RePZH53v5feXMUeI0gV3-1" edge="1">
                    <mxGeometry relative="1" as="geometry"/>
                </mxCell>
                <mxCell id="oZPEW25W5SpDKZrFHcVB-9" value="unit_id" style="ellipse;whiteSpace=wrap;html=1;align=center;fontStyle=4;fontSize=10;" parent="1" vertex="1">
                    <mxGeometry x="290" y="-130" width="50" height="30" as="geometry"/>
                </mxCell>
                <mxCell id="oZPEW25W5SpDKZrFHcVB-12" style="edgeStyle=orthogonalEdgeStyle;html=1;fontSize=10;curved=1;" parent="1" source="oZPEW25W5SpDKZrFHcVB-10" target="RePZH53v5feXMUeI0gV3-3" edge="1">
                    <mxGeometry relative="1" as="geometry"/>
                </mxCell>
                <mxCell id="oZPEW25W5SpDKZrFHcVB-10" value="floor_id" style="ellipse;whiteSpace=wrap;html=1;align=center;fontStyle=4;fontSize=10;" parent="1" vertex="1">
                    <mxGeometry x="400" y="-410" width="70" height="30" as="geometry"/>
                </mxCell>
                <mxCell id="oZPEW25W5SpDKZrFHcVB-32" style="edgeStyle=elbowEdgeStyle;html=1;fontSize=10;" parent="1" source="oZPEW25W5SpDKZrFHcVB-11" target="RePZH53v5feXMUeI0gV3-1" edge="1">
                    <mxGeometry relative="1" as="geometry"/>
                </mxCell>
                <mxCell id="oZPEW25W5SpDKZrFHcVB-11" value="Floor's Unit" style="shape=note;size=20;whiteSpace=wrap;html=1;fontSize=10;" parent="1" vertex="1">
                    <mxGeometry x="260" y="-200" width="200" height="50" as="geometry"/>
                </mxCell>
                <mxCell id="oZPEW25W5SpDKZrFHcVB-18" style="edgeStyle=orthogonalEdgeStyle;curved=1;html=1;fontSize=10;" parent="1" source="oZPEW25W5SpDKZrFHcVB-14" target="RePZH53v5feXMUeI0gV3-1" edge="1">
                    <mxGeometry relative="1" as="geometry"/>
                </mxCell>
                <mxCell id="oZPEW25W5SpDKZrFHcVB-14" value="fk_docInCharge_id" style="ellipse;whiteSpace=wrap;html=1;align=center;fontSize=10;" parent="1" vertex="1">
                    <mxGeometry x="480" y="-160" width="100" height="45" as="geometry"/>
                </mxCell>
                <mxCell id="oZPEW25W5SpDKZrFHcVB-17" style="edgeStyle=orthogonalEdgeStyle;curved=1;html=1;fontSize=10;" parent="1" source="oZPEW25W5SpDKZrFHcVB-15" target="RePZH53v5feXMUeI0gV3-1" edge="1">
                    <mxGeometry relative="1" as="geometry"/>
                </mxCell>
                <mxCell id="oZPEW25W5SpDKZrFHcVB-15" value="unit_name" style="ellipse;whiteSpace=wrap;html=1;align=center;fontSize=10;" parent="1" vertex="1">
                    <mxGeometry x="400" y="-130" width="60" height="40" as="geometry"/>
                </mxCell>
                <mxCell id="oZPEW25W5SpDKZrFHcVB-21" style="edgeStyle=orthogonalEdgeStyle;curved=1;html=1;fontSize=10;" parent="1" source="oZPEW25W5SpDKZrFHcVB-19" target="oZPEW25W5SpDKZrFHcVB-11" edge="1">
                    <mxGeometry relative="1" as="geometry"/>
                </mxCell>
                <mxCell id="oZPEW25W5SpDKZrFHcVB-19" value="fk_unit_id" style="ellipse;whiteSpace=wrap;html=1;align=center;fontSize=10;" parent="1" vertex="1">
                    <mxGeometry x="260" y="-260" width="70" height="40" as="geometry"/>
                </mxCell>
                <mxCell id="oZPEW25W5SpDKZrFHcVB-22" style="edgeStyle=orthogonalEdgeStyle;curved=1;html=1;fontSize=10;" parent="1" source="oZPEW25W5SpDKZrFHcVB-20" target="oZPEW25W5SpDKZrFHcVB-11" edge="1">
                    <mxGeometry relative="1" as="geometry"/>
                </mxCell>
                <mxCell id="oZPEW25W5SpDKZrFHcVB-20" value="fk_floor_id" style="ellipse;whiteSpace=wrap;html=1;align=center;fontSize=10;" parent="1" vertex="1">
                    <mxGeometry x="379" y="-260" width="70" height="40" as="geometry"/>
                </mxCell>
                <mxCell id="oZPEW25W5SpDKZrFHcVB-25" value="" style="edgeStyle=entityRelationEdgeStyle;fontSize=12;html=1;endArrow=ERoneToMany;" parent="1" source="RePZH53v5feXMUeI0gV3-3" target="oZPEW25W5SpDKZrFHcVB-11" edge="1">
                    <mxGeometry width="100" height="100" relative="1" as="geometry">
                        <mxPoint x="460" y="-30" as="sourcePoint"/>
                        <mxPoint x="560" y="-130" as="targetPoint"/>
                    </mxGeometry>
                </mxCell>
                <mxCell id="oZPEW25W5SpDKZrFHcVB-28" value="" style="edgeStyle=elbowEdgeStyle;fontSize=12;html=1;endArrow=ERoneToMany;" parent="1" source="oZPEW25W5SpDKZrFHcVB-11" target="RePZH53v5feXMUeI0gV3-1" edge="1">
                    <mxGeometry width="100" height="100" relative="1" as="geometry">
                        <mxPoint x="160" y="-170" as="sourcePoint"/>
                        <mxPoint x="280" y="30" as="targetPoint"/>
                        <Array as="points">
                            <mxPoint x="170" y="-60"/>
                        </Array>
                    </mxGeometry>
                </mxCell>
                <mxCell id="szQXuUHpc0Q5rHjYoiLO-3" style="edgeStyle=elbowEdgeStyle;html=1;fontSize=10;" parent="1" source="oZPEW25W5SpDKZrFHcVB-34" target="RePZH53v5feXMUeI0gV3-6" edge="1">
                    <mxGeometry relative="1" as="geometry"/>
                </mxCell>
                <mxCell id="oZPEW25W5SpDKZrFHcVB-34" value="Speciality" style="ellipse;whiteSpace=wrap;html=1;align=center;fontSize=10;" parent="1" vertex="1">
                    <mxGeometry x="463.25" y="85" width="70" height="30" as="geometry"/>
                </mxCell>
                <mxCell id="szQXuUHpc0Q5rHjYoiLO-2" style="edgeStyle=orthogonalEdgeStyle;html=1;fontSize=10;curved=1;" parent="1" source="oZPEW25W5SpDKZrFHcVB-36" target="RePZH53v5feXMUeI0gV3-6" edge="1">
                    <mxGeometry relative="1" as="geometry"/>
                </mxCell>
                <mxCell id="oZPEW25W5SpDKZrFHcVB-36" value="fk_unit_id" style="ellipse;whiteSpace=wrap;html=1;align=center;fontSize=10;" parent="1" vertex="1">
                    <mxGeometry x="400" y="45" width="60" height="40" as="geometry"/>
                </mxCell>
                <mxCell id="szQXuUHpc0Q5rHjYoiLO-6" value="" style="edgeStyle=elbowEdgeStyle;fontSize=12;html=1;endArrow=ERzeroToMany;startArrow=ERmandOne;exitX=0;exitY=0.5;exitDx=0;exitDy=0;" parent="1" source="RePZH53v5feXMUeI0gV3-6" target="RePZH53v5feXMUeI0gV3-1" edge="1">
                    <mxGeometry width="100" height="100" relative="1" as="geometry">
                        <mxPoint x="350" y="10" as="sourcePoint"/>
                        <mxPoint x="450" y="-90" as="targetPoint"/>
                        <Array as="points">
                            <mxPoint x="170" y="90"/>
                        </Array>
                    </mxGeometry>
                </mxCell>
                <mxCell id="szQXuUHpc0Q5rHjYoiLO-10" style="edgeStyle=elbowEdgeStyle;html=1;fontSize=10;endArrow=classic;endFill=1;" parent="1" source="szQXuUHpc0Q5rHjYoiLO-8" target="RePZH53v5feXMUeI0gV3-15" edge="1">
                    <mxGeometry relative="1" as="geometry"/>
                </mxCell>
                <mxCell id="szQXuUHpc0Q5rHjYoiLO-8" value="fk_doctor_id" style="ellipse;whiteSpace=wrap;html=1;align=center;fontStyle=4;fontSize=10;" parent="1" vertex="1">
                    <mxGeometry x="470" y="230" width="76.5" height="40" as="geometry"/>
                </mxCell>
                <mxCell id="szQXuUHpc0Q5rHjYoiLO-15" style="edgeStyle=orthogonalEdgeStyle;html=1;fontSize=10;endArrow=classic;endFill=1;curved=1;" parent="1" source="szQXuUHpc0Q5rHjYoiLO-11" target="RePZH53v5feXMUeI0gV3-13" edge="1">
                    <mxGeometry relative="1" as="geometry"/>
                </mxCell>
                <mxCell id="szQXuUHpc0Q5rHjYoiLO-11" value="doctor_id&lt;span style=&quot;color: rgba(0, 0, 0, 0); font-family: monospace; font-size: 0px; text-align: start;&quot;&gt;%3CmxGraphModel%3E%3Croot%3E%3CmxCell%20id%3D%220%22%2F%3E%3CmxCell%20id%3D%221%22%20parent%3D%220%22%2F%3E%3CmxCell%20id%3D%222%22%20value%3D%22fk_doctorInCharge_id%22%20style%3D%22ellipse%3BwhiteSpace%3Dwrap%3Bhtml%3D1%3Balign%3Dcenter%3BfontStyle%3D4%3BfontSize%3D10%3B%22%20vertex%3D%221%22%20parent%3D%221%22%3E%3CmxGeometry%20x%3D%22420%22%20y%3D%22210%22%20width%3D%22110%22%20height%3D%2240%22%20as%3D%22geometry%22%2F%3E%3C%2FmxCell%3E%3C%2Froot%3E%3C%2FmxGraphModel%3E&lt;/span&gt;" style="ellipse;whiteSpace=wrap;html=1;align=center;fontStyle=4;fontSize=10;" parent="1" vertex="1">
                    <mxGeometry x="474" y="300" width="68.5" height="30" as="geometry"/>
                </mxCell>
                <mxCell id="szQXuUHpc0Q5rHjYoiLO-26" style="edgeStyle=orthogonalEdgeStyle;curved=1;html=1;fontSize=10;endArrow=classic;endFill=1;" parent="1" source="szQXuUHpc0Q5rHjYoiLO-13" target="oZPEW25W5SpDKZrFHcVB-1" edge="1">
                    <mxGeometry relative="1" as="geometry"/>
                </mxCell>
                <mxCell id="szQXuUHpc0Q5rHjYoiLO-13" value="fk_listOfInterventions_id" style="ellipse;whiteSpace=wrap;html=1;align=center;fontSize=10;" parent="1" vertex="1">
                    <mxGeometry x="502.5" y="460" width="130" height="40" as="geometry"/>
                </mxCell>
                <mxCell id="szQXuUHpc0Q5rHjYoiLO-18" style="edgeStyle=orthogonalEdgeStyle;html=1;fontSize=10;endArrow=classic;endFill=1;curved=1;" parent="1" source="szQXuUHpc0Q5rHjYoiLO-14" target="RePZH53v5feXMUeI0gV3-13" edge="1">
                    <mxGeometry relative="1" as="geometry"/>
                </mxCell>
                <mxCell id="szQXuUHpc0Q5rHjYoiLO-14" value="name" style="ellipse;whiteSpace=wrap;html=1;align=center;fontSize=10;" parent="1" vertex="1">
                    <mxGeometry x="478.5" y="330" width="51.5" height="30" as="geometry"/>
                </mxCell>
                <mxCell id="szQXuUHpc0Q5rHjYoiLO-17" style="edgeStyle=orthogonalEdgeStyle;html=1;fontSize=10;endArrow=classic;endFill=1;curved=1;" parent="1" source="szQXuUHpc0Q5rHjYoiLO-16" target="RePZH53v5feXMUeI0gV3-6" edge="1">
                    <mxGeometry relative="1" as="geometry"/>
                </mxCell>
                <mxCell id="szQXuUHpc0Q5rHjYoiLO-16" value="name" style="ellipse;whiteSpace=wrap;html=1;align=center;fontSize=10;" parent="1" vertex="1">
                    <mxGeometry x="277" y="50" width="58.5" height="30" as="geometry"/>
                </mxCell>
                <mxCell id="szQXuUHpc0Q5rHjYoiLO-20" style="edgeStyle=orthogonalEdgeStyle;html=1;fontSize=10;endArrow=classic;endFill=1;curved=1;" parent="1" source="szQXuUHpc0Q5rHjYoiLO-19" target="RePZH53v5feXMUeI0gV3-13" edge="1">
                    <mxGeometry relative="1" as="geometry"/>
                </mxCell>
                <mxCell id="szQXuUHpc0Q5rHjYoiLO-19" value="speciality" style="ellipse;whiteSpace=wrap;html=1;align=center;fontSize=10;" parent="1" vertex="1">
                    <mxGeometry x="472.13" y="360" width="64.25" height="30" as="geometry"/>
                </mxCell>
                <mxCell id="szQXuUHpc0Q5rHjYoiLO-22" style="edgeStyle=elbowEdgeStyle;html=1;fontSize=10;endArrow=classic;endFill=1;" parent="1" source="szQXuUHpc0Q5rHjYoiLO-21" target="RePZH53v5feXMUeI0gV3-13" edge="1">
                    <mxGeometry relative="1" as="geometry"/>
                </mxCell>
                <mxCell id="szQXuUHpc0Q5rHjYoiLO-21" value="fk_listOfInterventions_id" style="ellipse;whiteSpace=wrap;html=1;align=center;fontSize=10;" parent="1" vertex="1">
                    <mxGeometry x="442.5" y="390" width="123.5" height="40" as="geometry"/>
                </mxCell>
                <mxCell id="szQXuUHpc0Q5rHjYoiLO-27" style="edgeStyle=orthogonalEdgeStyle;curved=1;html=1;fontSize=10;endArrow=classic;endFill=1;" parent="1" source="szQXuUHpc0Q5rHjYoiLO-24" target="oZPEW25W5SpDKZrFHcVB-1" edge="1">
                    <mxGeometry relative="1" as="geometry"/>
                </mxCell>
                <mxCell id="szQXuUHpc0Q5rHjYoiLO-24" value="fk_intervention_id" style="ellipse;whiteSpace=wrap;html=1;align=center;fontSize=10;" parent="1" vertex="1">
                    <mxGeometry x="502.5" y="510" width="130" height="40" as="geometry"/>
                </mxCell>
                <mxCell id="szQXuUHpc0Q5rHjYoiLO-34" style="edgeStyle=orthogonalEdgeStyle;curved=1;html=1;fontSize=10;endArrow=classic;endFill=1;" parent="1" source="szQXuUHpc0Q5rHjYoiLO-31" target="oZPEW25W5SpDKZrFHcVB-2" edge="1">
                    <mxGeometry relative="1" as="geometry"/>
                </mxCell>
                <mxCell id="szQXuUHpc0Q5rHjYoiLO-31" value="observed symptom" style="ellipse;whiteSpace=wrap;html=1;align=center;fontSize=10;" parent="1" vertex="1">
                    <mxGeometry x="576" y="640" width="100" height="40" as="geometry"/>
                </mxCell>
                <mxCell id="szQXuUHpc0Q5rHjYoiLO-36" style="edgeStyle=orthogonalEdgeStyle;curved=1;html=1;fontSize=10;endArrow=classic;endFill=1;" parent="1" source="szQXuUHpc0Q5rHjYoiLO-32" target="oZPEW25W5SpDKZrFHcVB-2" edge="1">
                    <mxGeometry relative="1" as="geometry"/>
                </mxCell>
                <mxCell id="szQXuUHpc0Q5rHjYoiLO-32" value="DateTIme" style="ellipse;whiteSpace=wrap;html=1;align=center;fontSize=10;" parent="1" vertex="1">
                    <mxGeometry x="426" y="690" width="54" height="30" as="geometry"/>
                </mxCell>
                <mxCell id="szQXuUHpc0Q5rHjYoiLO-35" style="edgeStyle=orthogonalEdgeStyle;curved=1;html=1;fontSize=10;endArrow=classic;endFill=1;" parent="1" source="szQXuUHpc0Q5rHjYoiLO-33" target="oZPEW25W5SpDKZrFHcVB-2" edge="1">
                    <mxGeometry relative="1" as="geometry"/>
                </mxCell>
                <mxCell id="szQXuUHpc0Q5rHjYoiLO-33" value="prescribed treatment" style="ellipse;whiteSpace=wrap;html=1;align=center;fontSize=10;" parent="1" vertex="1">
                    <mxGeometry x="576" y="690" width="100" height="40" as="geometry"/>
                </mxCell>
                <mxCell id="szQXuUHpc0Q5rHjYoiLO-37" value="Patient's Intervention" style="rounded=1;arcSize=10;whiteSpace=wrap;html=1;align=center;fontSize=10;" parent="1" vertex="1">
                    <mxGeometry x="310" y="760" width="100" height="70" as="geometry"/>
                </mxCell>
                <mxCell id="szQXuUHpc0Q5rHjYoiLO-45" style="edgeStyle=orthogonalEdgeStyle;curved=1;html=1;entryX=0.5;entryY=1;entryDx=0;entryDy=0;fontSize=10;endArrow=classic;endFill=1;" parent="1" source="szQXuUHpc0Q5rHjYoiLO-41" target="oZPEW25W5SpDKZrFHcVB-3" edge="1">
                    <mxGeometry relative="1" as="geometry"/>
                </mxCell>
                <mxCell id="szQXuUHpc0Q5rHjYoiLO-41" value="SSN" style="ellipse;whiteSpace=wrap;html=1;align=center;fontSize=10;" parent="1" vertex="1">
                    <mxGeometry x="300" y="970" width="50" height="30" as="geometry"/>
                </mxCell>
                <mxCell id="szQXuUHpc0Q5rHjYoiLO-46" style="edgeStyle=orthogonalEdgeStyle;curved=1;html=1;fontSize=10;endArrow=classic;endFill=1;" parent="1" source="szQXuUHpc0Q5rHjYoiLO-42" target="oZPEW25W5SpDKZrFHcVB-3" edge="1">
                    <mxGeometry relative="1" as="geometry"/>
                </mxCell>
                <mxCell id="szQXuUHpc0Q5rHjYoiLO-42" value="patient_age" style="ellipse;whiteSpace=wrap;html=1;align=center;fontSize=10;" parent="1" vertex="1">
                    <mxGeometry x="210" y="927.5" width="60" height="35" as="geometry"/>
                </mxCell>
                <mxCell id="szQXuUHpc0Q5rHjYoiLO-44" style="edgeStyle=orthogonalEdgeStyle;curved=1;html=1;entryX=0.5;entryY=1;entryDx=0;entryDy=0;fontSize=10;endArrow=classic;endFill=1;" parent="1" source="szQXuUHpc0Q5rHjYoiLO-43" target="oZPEW25W5SpDKZrFHcVB-3" edge="1">
                    <mxGeometry relative="1" as="geometry"/>
                </mxCell>
                <mxCell id="szQXuUHpc0Q5rHjYoiLO-43" value="Date" style="ellipse;whiteSpace=wrap;html=1;align=center;fontSize=10;" parent="1" vertex="1">
                    <mxGeometry x="449" y="930" width="53.5" height="30" as="geometry"/>
                </mxCell>
                <mxCell id="6H8LnFpSx21iTD_PN-5t-1" style="edgeStyle=orthogonalEdgeStyle;curved=1;html=1;fontSize=10;endArrow=classic;endFill=1;" parent="1" source="szQXuUHpc0Q5rHjYoiLO-47" target="szQXuUHpc0Q5rHjYoiLO-37" edge="1">
                    <mxGeometry relative="1" as="geometry"/>
                </mxCell>
                <mxCell id="szQXuUHpc0Q5rHjYoiLO-47" value="fk_intervention_id" style="ellipse;whiteSpace=wrap;html=1;align=center;fontSize=10;" parent="1" vertex="1">
                    <mxGeometry x="481.74" y="740" width="84.26" height="40" as="geometry"/>
                </mxCell>
                <mxCell id="6H8LnFpSx21iTD_PN-5t-2" style="edgeStyle=orthogonalEdgeStyle;curved=1;html=1;fontSize=10;endArrow=classic;endFill=1;" parent="1" source="szQXuUHpc0Q5rHjYoiLO-48" target="szQXuUHpc0Q5rHjYoiLO-37" edge="1">
                    <mxGeometry relative="1" as="geometry"/>
                </mxCell>
                <mxCell id="szQXuUHpc0Q5rHjYoiLO-48" value="fk_patient_id" style="ellipse;whiteSpace=wrap;html=1;align=center;fontSize=10;" parent="1" vertex="1">
                    <mxGeometry x="482.13" y="800" width="83.87" height="40" as="geometry"/>
                </mxCell>
                <mxCell id="6H8LnFpSx21iTD_PN-5t-3" value="" style="edgeStyle=elbowEdgeStyle;fontSize=12;html=1;endArrow=ERone;endFill=1;startArrow=ERoneToMany;startFill=0;" parent="1" source="szQXuUHpc0Q5rHjYoiLO-37" target="oZPEW25W5SpDKZrFHcVB-3" edge="1">
                    <mxGeometry width="100" height="100" relative="1" as="geometry">
                        <mxPoint x="270" y="860" as="sourcePoint"/>
                        <mxPoint x="240" y="780" as="targetPoint"/>
                        <Array as="points">
                            <mxPoint x="230" y="840"/>
                        </Array>
                    </mxGeometry>
                </mxCell>
                <mxCell id="6H8LnFpSx21iTD_PN-5t-4" value="" style="edgeStyle=elbowEdgeStyle;fontSize=12;html=1;endArrow=ERoneToMany;endFill=0;startArrow=ERone;startFill=0;" parent="1" source="oZPEW25W5SpDKZrFHcVB-2" target="szQXuUHpc0Q5rHjYoiLO-37" edge="1">
                    <mxGeometry width="100" height="100" relative="1" as="geometry">
                        <mxPoint x="320" y="805" as="sourcePoint"/>
                        <mxPoint x="332.5" y="905" as="targetPoint"/>
                        <Array as="points">
                            <mxPoint x="260" y="730"/>
                        </Array>
                    </mxGeometry>
                </mxCell>
                <mxCell id="6H8LnFpSx21iTD_PN-5t-5" value="" style="edgeStyle=elbowEdgeStyle;fontSize=12;html=1;endArrow=ERoneToMany;startArrow=none;startFill=0;" parent="1" source="oZPEW25W5SpDKZrFHcVB-2" target="oZPEW25W5SpDKZrFHcVB-1" edge="1">
                    <mxGeometry width="100" height="100" relative="1" as="geometry">
                        <mxPoint x="210" y="670" as="sourcePoint"/>
                        <mxPoint x="230" y="520" as="targetPoint"/>
                        <Array as="points">
                            <mxPoint x="240" y="595"/>
                        </Array>
                    </mxGeometry>
                </mxCell>
                <mxCell id="6H8LnFpSx21iTD_PN-5t-6" value="" style="edgeStyle=elbowEdgeStyle;fontSize=12;html=1;endArrow=ERoneToMany;" parent="1" source="RePZH53v5feXMUeI0gV3-13" target="RePZH53v5feXMUeI0gV3-15" edge="1">
                    <mxGeometry width="100" height="100" relative="1" as="geometry">
                        <mxPoint x="340" y="360" as="sourcePoint"/>
                        <mxPoint x="440" y="260" as="targetPoint"/>
                        <Array as="points">
                            <mxPoint x="280" y="335"/>
                        </Array>
                    </mxGeometry>
                </mxCell>
                <mxCell id="6H8LnFpSx21iTD_PN-5t-7" value="" style="edgeStyle=elbowEdgeStyle;fontSize=12;html=1;endArrow=ERzeroToMany;startArrow=ERmandOne;exitX=0;exitY=0.75;exitDx=0;exitDy=0;" parent="1" source="RePZH53v5feXMUeI0gV3-6" target="RePZH53v5feXMUeI0gV3-15" edge="1">
                    <mxGeometry width="100" height="100" relative="1" as="geometry">
                        <mxPoint x="340" y="260" as="sourcePoint"/>
                        <mxPoint x="440" y="160" as="targetPoint"/>
                        <Array as="points">
                            <mxPoint x="210" y="240"/>
                        </Array>
                    </mxGeometry>
                </mxCell>
            </root>
        </mxGraphModel>
    </diagram>
    <diagram id="rwcIlkqSXZfZ522C6zbg" name="ULM">
        <mxGraphModel dx="1890" dy="1814" grid="1" gridSize="10" guides="1" tooltips="1" connect="1" arrows="1" fold="1" page="1" pageScale="1" pageWidth="827" pageHeight="1169" math="0" shadow="0">
            <root>
                <mxCell id="0"/>
                <mxCell id="1" parent="0"/>
                <mxCell id="TTxkcA3aRhIFXzRTQhmF-1" value="Patient" style="shape=table;startSize=30;container=1;collapsible=1;childLayout=tableLayout;fixedRows=1;rowLines=0;fontStyle=1;align=center;resizeLast=1;" parent="1" vertex="1">
                    <mxGeometry x="-300" y="-160" width="170" height="160" as="geometry"/>
                </mxCell>
                <mxCell id="TTxkcA3aRhIFXzRTQhmF-2" value="" style="shape=tableRow;horizontal=0;startSize=0;swimlaneHead=0;swimlaneBody=0;fillColor=none;collapsible=0;dropTarget=0;points=[[0,0.5],[1,0.5]];portConstraint=eastwest;top=0;left=0;right=0;bottom=1;" parent="TTxkcA3aRhIFXzRTQhmF-1" vertex="1">
                    <mxGeometry y="30" width="170" height="40" as="geometry"/>
                </mxCell>
                <mxCell id="TTxkcA3aRhIFXzRTQhmF-3" value="PK" style="shape=partialRectangle;connectable=0;fillColor=none;top=0;left=0;bottom=0;right=0;fontStyle=1;overflow=hidden;" parent="TTxkcA3aRhIFXzRTQhmF-2" vertex="1">
                    <mxGeometry width="30" height="40" as="geometry">
                        <mxRectangle width="30" height="40" as="alternateBounds"/>
                    </mxGeometry>
                </mxCell>
                <mxCell id="TTxkcA3aRhIFXzRTQhmF-4" value="patient_id" style="shape=partialRectangle;connectable=0;fillColor=none;top=0;left=0;bottom=0;right=0;align=left;spacingLeft=6;fontStyle=5;overflow=hidden;" parent="TTxkcA3aRhIFXzRTQhmF-2" vertex="1">
                    <mxGeometry x="30" width="140" height="40" as="geometry">
                        <mxRectangle width="140" height="40" as="alternateBounds"/>
                    </mxGeometry>
                </mxCell>
                <mxCell id="TTxkcA3aRhIFXzRTQhmF-5" value="" style="shape=tableRow;horizontal=0;startSize=0;swimlaneHead=0;swimlaneBody=0;fillColor=none;collapsible=0;dropTarget=0;points=[[0,0.5],[1,0.5]];portConstraint=eastwest;top=0;left=0;right=0;bottom=0;" parent="TTxkcA3aRhIFXzRTQhmF-1" vertex="1">
                    <mxGeometry y="70" width="170" height="30" as="geometry"/>
                </mxCell>
                <mxCell id="TTxkcA3aRhIFXzRTQhmF-6" value="" style="shape=partialRectangle;connectable=0;fillColor=none;top=0;left=0;bottom=0;right=0;editable=1;overflow=hidden;" parent="TTxkcA3aRhIFXzRTQhmF-5" vertex="1">
                    <mxGeometry width="30" height="30" as="geometry">
                        <mxRectangle width="30" height="30" as="alternateBounds"/>
                    </mxGeometry>
                </mxCell>
                <mxCell id="TTxkcA3aRhIFXzRTQhmF-7" value="patient_name" style="shape=partialRectangle;connectable=0;fillColor=none;top=0;left=0;bottom=0;right=0;align=left;spacingLeft=6;overflow=hidden;" parent="TTxkcA3aRhIFXzRTQhmF-5" vertex="1">
                    <mxGeometry x="30" width="140" height="30" as="geometry">
                        <mxRectangle width="140" height="30" as="alternateBounds"/>
                    </mxGeometry>
                </mxCell>
                <mxCell id="TTxkcA3aRhIFXzRTQhmF-8" value="" style="shape=tableRow;horizontal=0;startSize=0;swimlaneHead=0;swimlaneBody=0;fillColor=none;collapsible=0;dropTarget=0;points=[[0,0.5],[1,0.5]];portConstraint=eastwest;top=0;left=0;right=0;bottom=0;" parent="TTxkcA3aRhIFXzRTQhmF-1" vertex="1">
                    <mxGeometry y="100" width="170" height="30" as="geometry"/>
                </mxCell>
                <mxCell id="TTxkcA3aRhIFXzRTQhmF-9" value="" style="shape=partialRectangle;connectable=0;fillColor=none;top=0;left=0;bottom=0;right=0;editable=1;overflow=hidden;" parent="TTxkcA3aRhIFXzRTQhmF-8" vertex="1">
                    <mxGeometry width="30" height="30" as="geometry">
                        <mxRectangle width="30" height="30" as="alternateBounds"/>
                    </mxGeometry>
                </mxCell>
                <mxCell id="TTxkcA3aRhIFXzRTQhmF-10" value="patient_age" style="shape=partialRectangle;connectable=0;fillColor=none;top=0;left=0;bottom=0;right=0;align=left;spacingLeft=6;overflow=hidden;" parent="TTxkcA3aRhIFXzRTQhmF-8" vertex="1">
                    <mxGeometry x="30" width="140" height="30" as="geometry">
                        <mxRectangle width="140" height="30" as="alternateBounds"/>
                    </mxGeometry>
                </mxCell>
                <mxCell id="TTxkcA3aRhIFXzRTQhmF-11" value="" style="shape=tableRow;horizontal=0;startSize=0;swimlaneHead=0;swimlaneBody=0;fillColor=none;collapsible=0;dropTarget=0;points=[[0,0.5],[1,0.5]];portConstraint=eastwest;top=0;left=0;right=0;bottom=0;" parent="TTxkcA3aRhIFXzRTQhmF-1" vertex="1">
                    <mxGeometry y="130" width="170" height="30" as="geometry"/>
                </mxCell>
                <mxCell id="TTxkcA3aRhIFXzRTQhmF-12" value="" style="shape=partialRectangle;connectable=0;fillColor=none;top=0;left=0;bottom=0;right=0;editable=1;overflow=hidden;" parent="TTxkcA3aRhIFXzRTQhmF-11" vertex="1">
                    <mxGeometry width="30" height="30" as="geometry">
                        <mxRectangle width="30" height="30" as="alternateBounds"/>
                    </mxGeometry>
                </mxCell>
                <mxCell id="TTxkcA3aRhIFXzRTQhmF-13" value="SSN" style="shape=partialRectangle;connectable=0;fillColor=none;top=0;left=0;bottom=0;right=0;align=left;spacingLeft=6;overflow=hidden;" parent="TTxkcA3aRhIFXzRTQhmF-11" vertex="1">
                    <mxGeometry x="30" width="140" height="30" as="geometry">
                        <mxRectangle width="140" height="30" as="alternateBounds"/>
                    </mxGeometry>
                </mxCell>
                <mxCell id="TTxkcA3aRhIFXzRTQhmF-19" value="Patient's intervention" style="shape=table;startSize=30;container=1;collapsible=1;childLayout=tableLayout;fixedRows=1;rowLines=0;fontStyle=1;align=center;resizeLast=1;" parent="1" vertex="1">
                    <mxGeometry x="-50" y="-130" width="210" height="130" as="geometry"/>
                </mxCell>
                <mxCell id="TTxkcA3aRhIFXzRTQhmF-20" value="" style="shape=tableRow;horizontal=0;startSize=0;swimlaneHead=0;swimlaneBody=0;fillColor=none;collapsible=0;dropTarget=0;points=[[0,0.5],[1,0.5]];portConstraint=eastwest;top=0;left=0;right=0;bottom=0;" parent="TTxkcA3aRhIFXzRTQhmF-19" vertex="1">
                    <mxGeometry y="30" width="210" height="30" as="geometry"/>
                </mxCell>
                <mxCell id="TTxkcA3aRhIFXzRTQhmF-21" value="PK,FK1" style="shape=partialRectangle;connectable=0;fillColor=none;top=0;left=0;bottom=0;right=0;fontStyle=1;overflow=hidden;" parent="TTxkcA3aRhIFXzRTQhmF-20" vertex="1">
                    <mxGeometry width="60" height="30" as="geometry">
                        <mxRectangle width="60" height="30" as="alternateBounds"/>
                    </mxGeometry>
                </mxCell>
                <mxCell id="TTxkcA3aRhIFXzRTQhmF-22" value="fk_intervention_id : int" style="shape=partialRectangle;connectable=0;fillColor=none;top=0;left=0;bottom=0;right=0;align=left;spacingLeft=6;fontStyle=5;overflow=hidden;" parent="TTxkcA3aRhIFXzRTQhmF-20" vertex="1">
                    <mxGeometry x="60" width="150" height="30" as="geometry">
                        <mxRectangle width="150" height="30" as="alternateBounds"/>
                    </mxGeometry>
                </mxCell>
                <mxCell id="TTxkcA3aRhIFXzRTQhmF-23" value="" style="shape=tableRow;horizontal=0;startSize=0;swimlaneHead=0;swimlaneBody=0;fillColor=none;collapsible=0;dropTarget=0;points=[[0,0.5],[1,0.5]];portConstraint=eastwest;top=0;left=0;right=0;bottom=1;" parent="TTxkcA3aRhIFXzRTQhmF-19" vertex="1">
                    <mxGeometry y="60" width="210" height="30" as="geometry"/>
                </mxCell>
                <mxCell id="TTxkcA3aRhIFXzRTQhmF-24" value="PK,FK2" style="shape=partialRectangle;connectable=0;fillColor=none;top=0;left=0;bottom=0;right=0;fontStyle=1;overflow=hidden;" parent="TTxkcA3aRhIFXzRTQhmF-23" vertex="1">
                    <mxGeometry width="60" height="30" as="geometry">
                        <mxRectangle width="60" height="30" as="alternateBounds"/>
                    </mxGeometry>
                </mxCell>
                <mxCell id="TTxkcA3aRhIFXzRTQhmF-25" value="fk_patient_id : int" style="shape=partialRectangle;connectable=0;fillColor=none;top=0;left=0;bottom=0;right=0;align=left;spacingLeft=6;fontStyle=5;overflow=hidden;" parent="TTxkcA3aRhIFXzRTQhmF-23" vertex="1">
                    <mxGeometry x="60" width="150" height="30" as="geometry">
                        <mxRectangle width="150" height="30" as="alternateBounds"/>
                    </mxGeometry>
                </mxCell>
                <mxCell id="TTxkcA3aRhIFXzRTQhmF-26" value="" style="shape=tableRow;horizontal=0;startSize=0;swimlaneHead=0;swimlaneBody=0;fillColor=none;collapsible=0;dropTarget=0;points=[[0,0.5],[1,0.5]];portConstraint=eastwest;top=0;left=0;right=0;bottom=0;" parent="TTxkcA3aRhIFXzRTQhmF-19" vertex="1">
                    <mxGeometry y="90" width="210" height="20" as="geometry"/>
                </mxCell>
                <mxCell id="TTxkcA3aRhIFXzRTQhmF-27" value="" style="shape=partialRectangle;connectable=0;fillColor=none;top=0;left=0;bottom=0;right=0;editable=1;overflow=hidden;" parent="TTxkcA3aRhIFXzRTQhmF-26" vertex="1">
                    <mxGeometry width="60" height="20" as="geometry">
                        <mxRectangle width="60" height="20" as="alternateBounds"/>
                    </mxGeometry>
                </mxCell>
                <mxCell id="TTxkcA3aRhIFXzRTQhmF-28" value="intervention_date : DATE" style="shape=partialRectangle;connectable=0;fillColor=none;top=0;left=0;bottom=0;right=0;align=left;spacingLeft=6;overflow=hidden;" parent="TTxkcA3aRhIFXzRTQhmF-26" vertex="1">
                    <mxGeometry x="60" width="150" height="20" as="geometry">
                        <mxRectangle width="150" height="20" as="alternateBounds"/>
                    </mxGeometry>
                </mxCell>
                <mxCell id="TTxkcA3aRhIFXzRTQhmF-29" value="" style="shape=tableRow;horizontal=0;startSize=0;swimlaneHead=0;swimlaneBody=0;fillColor=none;collapsible=0;dropTarget=0;points=[[0,0.5],[1,0.5]];portConstraint=eastwest;top=0;left=0;right=0;bottom=0;" parent="TTxkcA3aRhIFXzRTQhmF-19" vertex="1">
                    <mxGeometry y="110" width="210" height="20" as="geometry"/>
                </mxCell>
                <mxCell id="TTxkcA3aRhIFXzRTQhmF-30" value="" style="shape=partialRectangle;connectable=0;fillColor=none;top=0;left=0;bottom=0;right=0;editable=1;overflow=hidden;" parent="TTxkcA3aRhIFXzRTQhmF-29" vertex="1">
                    <mxGeometry width="60" height="20" as="geometry">
                        <mxRectangle width="60" height="20" as="alternateBounds"/>
                    </mxGeometry>
                </mxCell>
                <mxCell id="TTxkcA3aRhIFXzRTQhmF-31" value="" style="shape=partialRectangle;connectable=0;fillColor=none;top=0;left=0;bottom=0;right=0;align=left;spacingLeft=6;overflow=hidden;" parent="TTxkcA3aRhIFXzRTQhmF-29" vertex="1">
                    <mxGeometry x="60" width="150" height="20" as="geometry">
                        <mxRectangle width="150" height="20" as="alternateBounds"/>
                    </mxGeometry>
                </mxCell>
                <mxCell id="TTxkcA3aRhIFXzRTQhmF-32" value="Intervention" style="shape=table;startSize=30;container=1;collapsible=1;childLayout=tableLayout;fixedRows=1;rowLines=0;fontStyle=1;align=center;resizeLast=1;" parent="1" vertex="1">
                    <mxGeometry x="140" y="-300" width="180" height="150" as="geometry"/>
                </mxCell>
                <mxCell id="TTxkcA3aRhIFXzRTQhmF-33" value="" style="shape=tableRow;horizontal=0;startSize=0;swimlaneHead=0;swimlaneBody=0;fillColor=none;collapsible=0;dropTarget=0;points=[[0,0.5],[1,0.5]];portConstraint=eastwest;top=0;left=0;right=0;bottom=1;" parent="TTxkcA3aRhIFXzRTQhmF-32" vertex="1">
                    <mxGeometry y="30" width="180" height="40" as="geometry"/>
                </mxCell>
                <mxCell id="TTxkcA3aRhIFXzRTQhmF-34" value="PK" style="shape=partialRectangle;connectable=0;fillColor=none;top=0;left=0;bottom=0;right=0;fontStyle=1;overflow=hidden;" parent="TTxkcA3aRhIFXzRTQhmF-33" vertex="1">
                    <mxGeometry width="30" height="40" as="geometry">
                        <mxRectangle width="30" height="40" as="alternateBounds"/>
                    </mxGeometry>
                </mxCell>
                <mxCell id="TTxkcA3aRhIFXzRTQhmF-35" value="intervention_id" style="shape=partialRectangle;connectable=0;fillColor=none;top=0;left=0;bottom=0;right=0;align=left;spacingLeft=6;fontStyle=5;overflow=hidden;" parent="TTxkcA3aRhIFXzRTQhmF-33" vertex="1">
                    <mxGeometry x="30" width="150" height="40" as="geometry">
                        <mxRectangle width="150" height="40" as="alternateBounds"/>
                    </mxGeometry>
                </mxCell>
                <mxCell id="TTxkcA3aRhIFXzRTQhmF-36" value="" style="shape=tableRow;horizontal=0;startSize=0;swimlaneHead=0;swimlaneBody=0;fillColor=none;collapsible=0;dropTarget=0;points=[[0,0.5],[1,0.5]];portConstraint=eastwest;top=0;left=0;right=0;bottom=0;" parent="TTxkcA3aRhIFXzRTQhmF-32" vertex="1">
                    <mxGeometry y="70" width="180" height="30" as="geometry"/>
                </mxCell>
                <mxCell id="TTxkcA3aRhIFXzRTQhmF-37" value="" style="shape=partialRectangle;connectable=0;fillColor=none;top=0;left=0;bottom=0;right=0;editable=1;overflow=hidden;" parent="TTxkcA3aRhIFXzRTQhmF-36" vertex="1">
                    <mxGeometry width="30" height="30" as="geometry">
                        <mxRectangle width="30" height="30" as="alternateBounds"/>
                    </mxGeometry>
                </mxCell>
                <mxCell id="TTxkcA3aRhIFXzRTQhmF-38" value="observed symptom" style="shape=partialRectangle;connectable=0;fillColor=none;top=0;left=0;bottom=0;right=0;align=left;spacingLeft=6;overflow=hidden;" parent="TTxkcA3aRhIFXzRTQhmF-36" vertex="1">
                    <mxGeometry x="30" width="150" height="30" as="geometry">
                        <mxRectangle width="150" height="30" as="alternateBounds"/>
                    </mxGeometry>
                </mxCell>
                <mxCell id="TTxkcA3aRhIFXzRTQhmF-39" value="" style="shape=tableRow;horizontal=0;startSize=0;swimlaneHead=0;swimlaneBody=0;fillColor=none;collapsible=0;dropTarget=0;points=[[0,0.5],[1,0.5]];portConstraint=eastwest;top=0;left=0;right=0;bottom=0;" parent="TTxkcA3aRhIFXzRTQhmF-32" vertex="1">
                    <mxGeometry y="100" width="180" height="30" as="geometry"/>
                </mxCell>
                <mxCell id="TTxkcA3aRhIFXzRTQhmF-40" value="" style="shape=partialRectangle;connectable=0;fillColor=none;top=0;left=0;bottom=0;right=0;editable=1;overflow=hidden;" parent="TTxkcA3aRhIFXzRTQhmF-39" vertex="1">
                    <mxGeometry width="30" height="30" as="geometry">
                        <mxRectangle width="30" height="30" as="alternateBounds"/>
                    </mxGeometry>
                </mxCell>
                <mxCell id="TTxkcA3aRhIFXzRTQhmF-41" value="prescribed treatment" style="shape=partialRectangle;connectable=0;fillColor=none;top=0;left=0;bottom=0;right=0;align=left;spacingLeft=6;overflow=hidden;" parent="TTxkcA3aRhIFXzRTQhmF-39" vertex="1">
                    <mxGeometry x="30" width="150" height="30" as="geometry">
                        <mxRectangle width="150" height="30" as="alternateBounds"/>
                    </mxGeometry>
                </mxCell>
                <mxCell id="TTxkcA3aRhIFXzRTQhmF-42" value="" style="shape=tableRow;horizontal=0;startSize=0;swimlaneHead=0;swimlaneBody=0;fillColor=none;collapsible=0;dropTarget=0;points=[[0,0.5],[1,0.5]];portConstraint=eastwest;top=0;left=0;right=0;bottom=0;" parent="TTxkcA3aRhIFXzRTQhmF-32" vertex="1">
                    <mxGeometry y="130" width="180" height="20" as="geometry"/>
                </mxCell>
                <mxCell id="TTxkcA3aRhIFXzRTQhmF-43" value="" style="shape=partialRectangle;connectable=0;fillColor=none;top=0;left=0;bottom=0;right=0;editable=1;overflow=hidden;" parent="TTxkcA3aRhIFXzRTQhmF-42" vertex="1">
                    <mxGeometry width="30" height="20" as="geometry">
                        <mxRectangle width="30" height="20" as="alternateBounds"/>
                    </mxGeometry>
                </mxCell>
                <mxCell id="TTxkcA3aRhIFXzRTQhmF-44" value="" style="shape=partialRectangle;connectable=0;fillColor=none;top=0;left=0;bottom=0;right=0;align=left;spacingLeft=6;overflow=hidden;" parent="TTxkcA3aRhIFXzRTQhmF-42" vertex="1">
                    <mxGeometry x="30" width="150" height="20" as="geometry">
                        <mxRectangle width="150" height="20" as="alternateBounds"/>
                    </mxGeometry>
                </mxCell>
                <mxCell id="TTxkcA3aRhIFXzRTQhmF-46" value="Intervention's doctor" style="shape=table;startSize=30;container=1;collapsible=1;childLayout=tableLayout;fixedRows=1;rowLines=0;fontStyle=1;align=center;resizeLast=1;" parent="1" vertex="1">
                    <mxGeometry x="-80" y="-380" width="180" height="90" as="geometry"/>
                </mxCell>
                <mxCell id="TTxkcA3aRhIFXzRTQhmF-47" value="" style="shape=tableRow;horizontal=0;startSize=0;swimlaneHead=0;swimlaneBody=0;fillColor=none;collapsible=0;dropTarget=0;points=[[0,0.5],[1,0.5]];portConstraint=eastwest;top=0;left=0;right=0;bottom=0;" parent="TTxkcA3aRhIFXzRTQhmF-46" vertex="1">
                    <mxGeometry y="30" width="180" height="30" as="geometry"/>
                </mxCell>
                <mxCell id="TTxkcA3aRhIFXzRTQhmF-48" value="PK,FK1" style="shape=partialRectangle;connectable=0;fillColor=none;top=0;left=0;bottom=0;right=0;fontStyle=1;overflow=hidden;" parent="TTxkcA3aRhIFXzRTQhmF-47" vertex="1">
                    <mxGeometry width="60" height="30" as="geometry">
                        <mxRectangle width="60" height="30" as="alternateBounds"/>
                    </mxGeometry>
                </mxCell>
                <mxCell id="TTxkcA3aRhIFXzRTQhmF-49" value="fk_doctor_id" style="shape=partialRectangle;connectable=0;fillColor=none;top=0;left=0;bottom=0;right=0;align=left;spacingLeft=6;fontStyle=5;overflow=hidden;" parent="TTxkcA3aRhIFXzRTQhmF-47" vertex="1">
                    <mxGeometry x="60" width="120" height="30" as="geometry">
                        <mxRectangle width="120" height="30" as="alternateBounds"/>
                    </mxGeometry>
                </mxCell>
                <mxCell id="TTxkcA3aRhIFXzRTQhmF-50" value="" style="shape=tableRow;horizontal=0;startSize=0;swimlaneHead=0;swimlaneBody=0;fillColor=none;collapsible=0;dropTarget=0;points=[[0,0.5],[1,0.5]];portConstraint=eastwest;top=0;left=0;right=0;bottom=1;" parent="TTxkcA3aRhIFXzRTQhmF-46" vertex="1">
                    <mxGeometry y="60" width="180" height="30" as="geometry"/>
                </mxCell>
                <mxCell id="TTxkcA3aRhIFXzRTQhmF-51" value="PK,FK2" style="shape=partialRectangle;connectable=0;fillColor=none;top=0;left=0;bottom=0;right=0;fontStyle=1;overflow=hidden;" parent="TTxkcA3aRhIFXzRTQhmF-50" vertex="1">
                    <mxGeometry width="60" height="30" as="geometry">
                        <mxRectangle width="60" height="30" as="alternateBounds"/>
                    </mxGeometry>
                </mxCell>
                <mxCell id="TTxkcA3aRhIFXzRTQhmF-52" value="fk_intervention_id" style="shape=partialRectangle;connectable=0;fillColor=none;top=0;left=0;bottom=0;right=0;align=left;spacingLeft=6;fontStyle=5;overflow=hidden;" parent="TTxkcA3aRhIFXzRTQhmF-50" vertex="1">
                    <mxGeometry x="60" width="120" height="30" as="geometry">
                        <mxRectangle width="120" height="30" as="alternateBounds"/>
                    </mxGeometry>
                </mxCell>
                <mxCell id="TTxkcA3aRhIFXzRTQhmF-59" value="Doctor" style="shape=table;startSize=30;container=1;collapsible=1;childLayout=tableLayout;fixedRows=1;rowLines=0;fontStyle=1;align=center;resizeLast=1;" parent="1" vertex="1">
                    <mxGeometry x="140" y="-570" width="180" height="120" as="geometry"/>
                </mxCell>
                <mxCell id="TTxkcA3aRhIFXzRTQhmF-60" value="" style="shape=tableRow;horizontal=0;startSize=0;swimlaneHead=0;swimlaneBody=0;fillColor=none;collapsible=0;dropTarget=0;points=[[0,0.5],[1,0.5]];portConstraint=eastwest;top=0;left=0;right=0;bottom=1;" parent="TTxkcA3aRhIFXzRTQhmF-59" vertex="1">
                    <mxGeometry y="30" width="180" height="30" as="geometry"/>
                </mxCell>
                <mxCell id="TTxkcA3aRhIFXzRTQhmF-61" value="PK" style="shape=partialRectangle;connectable=0;fillColor=none;top=0;left=0;bottom=0;right=0;fontStyle=1;overflow=hidden;" parent="TTxkcA3aRhIFXzRTQhmF-60" vertex="1">
                    <mxGeometry width="30" height="30" as="geometry">
                        <mxRectangle width="30" height="30" as="alternateBounds"/>
                    </mxGeometry>
                </mxCell>
                <mxCell id="TTxkcA3aRhIFXzRTQhmF-62" value="doctor_id" style="shape=partialRectangle;connectable=0;fillColor=none;top=0;left=0;bottom=0;right=0;align=left;spacingLeft=6;fontStyle=5;overflow=hidden;" parent="TTxkcA3aRhIFXzRTQhmF-60" vertex="1">
                    <mxGeometry x="30" width="150" height="30" as="geometry">
                        <mxRectangle width="150" height="30" as="alternateBounds"/>
                    </mxGeometry>
                </mxCell>
                <mxCell id="TTxkcA3aRhIFXzRTQhmF-63" value="" style="shape=tableRow;horizontal=0;startSize=0;swimlaneHead=0;swimlaneBody=0;fillColor=none;collapsible=0;dropTarget=0;points=[[0,0.5],[1,0.5]];portConstraint=eastwest;top=0;left=0;right=0;bottom=0;" parent="TTxkcA3aRhIFXzRTQhmF-59" vertex="1">
                    <mxGeometry y="60" width="180" height="30" as="geometry"/>
                </mxCell>
                <mxCell id="TTxkcA3aRhIFXzRTQhmF-64" value="" style="shape=partialRectangle;connectable=0;fillColor=none;top=0;left=0;bottom=0;right=0;editable=1;overflow=hidden;" parent="TTxkcA3aRhIFXzRTQhmF-63" vertex="1">
                    <mxGeometry width="30" height="30" as="geometry">
                        <mxRectangle width="30" height="30" as="alternateBounds"/>
                    </mxGeometry>
                </mxCell>
                <mxCell id="TTxkcA3aRhIFXzRTQhmF-65" value="doctor_name" style="shape=partialRectangle;connectable=0;fillColor=none;top=0;left=0;bottom=0;right=0;align=left;spacingLeft=6;overflow=hidden;" parent="TTxkcA3aRhIFXzRTQhmF-63" vertex="1">
                    <mxGeometry x="30" width="150" height="30" as="geometry">
                        <mxRectangle width="150" height="30" as="alternateBounds"/>
                    </mxGeometry>
                </mxCell>
                <mxCell id="TTxkcA3aRhIFXzRTQhmF-66" value="" style="shape=tableRow;horizontal=0;startSize=0;swimlaneHead=0;swimlaneBody=0;fillColor=none;collapsible=0;dropTarget=0;points=[[0,0.5],[1,0.5]];portConstraint=eastwest;top=0;left=0;right=0;bottom=0;" parent="TTxkcA3aRhIFXzRTQhmF-59" vertex="1">
                    <mxGeometry y="90" width="180" height="30" as="geometry"/>
                </mxCell>
                <mxCell id="TTxkcA3aRhIFXzRTQhmF-67" value="" style="shape=partialRectangle;connectable=0;fillColor=none;top=0;left=0;bottom=0;right=0;editable=1;overflow=hidden;" parent="TTxkcA3aRhIFXzRTQhmF-66" vertex="1">
                    <mxGeometry width="30" height="30" as="geometry">
                        <mxRectangle width="30" height="30" as="alternateBounds"/>
                    </mxGeometry>
                </mxCell>
                <mxCell id="TTxkcA3aRhIFXzRTQhmF-68" value="speciality" style="shape=partialRectangle;connectable=0;fillColor=none;top=0;left=0;bottom=0;right=0;align=left;spacingLeft=6;overflow=hidden;" parent="TTxkcA3aRhIFXzRTQhmF-66" vertex="1">
                    <mxGeometry x="30" width="150" height="30" as="geometry">
                        <mxRectangle width="150" height="30" as="alternateBounds"/>
                    </mxGeometry>
                </mxCell>
                <mxCell id="TTxkcA3aRhIFXzRTQhmF-72" value="DoctorInCharge" style="shape=table;startSize=30;container=1;collapsible=1;childLayout=tableLayout;fixedRows=1;rowLines=0;fontStyle=1;align=center;resizeLast=1;" parent="1" vertex="1">
                    <mxGeometry x="720" y="-584" width="216" height="120" as="geometry"/>
                </mxCell>
                <mxCell id="TTxkcA3aRhIFXzRTQhmF-73" value="" style="shape=tableRow;horizontal=0;startSize=0;swimlaneHead=0;swimlaneBody=0;fillColor=none;collapsible=0;dropTarget=0;points=[[0,0.5],[1,0.5]];portConstraint=eastwest;top=0;left=0;right=0;bottom=1;" parent="TTxkcA3aRhIFXzRTQhmF-72" vertex="1">
                    <mxGeometry y="30" width="216" height="30" as="geometry"/>
                </mxCell>
                <mxCell id="TTxkcA3aRhIFXzRTQhmF-74" value="PK" style="shape=partialRectangle;connectable=0;fillColor=none;top=0;left=0;bottom=0;right=0;fontStyle=1;overflow=hidden;" parent="TTxkcA3aRhIFXzRTQhmF-73" vertex="1">
                    <mxGeometry width="30" height="30" as="geometry">
                        <mxRectangle width="30" height="30" as="alternateBounds"/>
                    </mxGeometry>
                </mxCell>
                <mxCell id="TTxkcA3aRhIFXzRTQhmF-75" value="DoctorInCharge_id : int" style="shape=partialRectangle;connectable=0;fillColor=none;top=0;left=0;bottom=0;right=0;align=left;spacingLeft=6;fontStyle=5;overflow=hidden;" parent="TTxkcA3aRhIFXzRTQhmF-73" vertex="1">
                    <mxGeometry x="30" width="186" height="30" as="geometry">
                        <mxRectangle width="186" height="30" as="alternateBounds"/>
                    </mxGeometry>
                </mxCell>
                <mxCell id="TTxkcA3aRhIFXzRTQhmF-76" value="" style="shape=tableRow;horizontal=0;startSize=0;swimlaneHead=0;swimlaneBody=0;fillColor=none;collapsible=0;dropTarget=0;points=[[0,0.5],[1,0.5]];portConstraint=eastwest;top=0;left=0;right=0;bottom=0;" parent="TTxkcA3aRhIFXzRTQhmF-72" vertex="1">
                    <mxGeometry y="60" width="216" height="30" as="geometry"/>
                </mxCell>
                <mxCell id="TTxkcA3aRhIFXzRTQhmF-77" value="" style="shape=partialRectangle;connectable=0;fillColor=none;top=0;left=0;bottom=0;right=0;editable=1;overflow=hidden;" parent="TTxkcA3aRhIFXzRTQhmF-76" vertex="1">
                    <mxGeometry width="30" height="30" as="geometry">
                        <mxRectangle width="30" height="30" as="alternateBounds"/>
                    </mxGeometry>
                </mxCell>
                <mxCell id="TTxkcA3aRhIFXzRTQhmF-78" value="DocInChargeName : Varchar(15)" style="shape=partialRectangle;connectable=0;fillColor=none;top=0;left=0;bottom=0;right=0;align=left;spacingLeft=6;overflow=hidden;" parent="TTxkcA3aRhIFXzRTQhmF-76" vertex="1">
                    <mxGeometry x="30" width="186" height="30" as="geometry">
                        <mxRectangle width="186" height="30" as="alternateBounds"/>
                    </mxGeometry>
                </mxCell>
                <mxCell id="TTxkcA3aRhIFXzRTQhmF-79" value="" style="shape=tableRow;horizontal=0;startSize=0;swimlaneHead=0;swimlaneBody=0;fillColor=none;collapsible=0;dropTarget=0;points=[[0,0.5],[1,0.5]];portConstraint=eastwest;top=0;left=0;right=0;bottom=0;" parent="TTxkcA3aRhIFXzRTQhmF-72" vertex="1">
                    <mxGeometry y="90" width="216" height="30" as="geometry"/>
                </mxCell>
                <mxCell id="TTxkcA3aRhIFXzRTQhmF-80" value="" style="shape=partialRectangle;connectable=0;fillColor=none;top=0;left=0;bottom=0;right=0;editable=1;overflow=hidden;" parent="TTxkcA3aRhIFXzRTQhmF-79" vertex="1">
                    <mxGeometry width="30" height="30" as="geometry">
                        <mxRectangle width="30" height="30" as="alternateBounds"/>
                    </mxGeometry>
                </mxCell>
                <mxCell id="TTxkcA3aRhIFXzRTQhmF-81" value="speciality : varchar(20)" style="shape=partialRectangle;connectable=0;fillColor=none;top=0;left=0;bottom=0;right=0;align=left;spacingLeft=6;overflow=hidden;" parent="TTxkcA3aRhIFXzRTQhmF-79" vertex="1">
                    <mxGeometry x="30" width="186" height="30" as="geometry">
                        <mxRectangle width="186" height="30" as="alternateBounds"/>
                    </mxGeometry>
                </mxCell>
                <mxCell id="TTxkcA3aRhIFXzRTQhmF-98" value="listOfDoctors" style="shape=table;startSize=30;container=1;collapsible=1;childLayout=tableLayout;fixedRows=1;rowLines=0;fontStyle=1;align=center;resizeLast=1;" parent="1" vertex="1">
                    <mxGeometry x="380" y="-510" width="241" height="90" as="geometry"/>
                </mxCell>
                <mxCell id="TTxkcA3aRhIFXzRTQhmF-99" value="" style="shape=tableRow;horizontal=0;startSize=0;swimlaneHead=0;swimlaneBody=0;fillColor=none;collapsible=0;dropTarget=0;points=[[0,0.5],[1,0.5]];portConstraint=eastwest;top=0;left=0;right=0;bottom=0;" parent="TTxkcA3aRhIFXzRTQhmF-98" vertex="1">
                    <mxGeometry y="30" width="241" height="30" as="geometry"/>
                </mxCell>
                <mxCell id="TTxkcA3aRhIFXzRTQhmF-100" value="PK,FK1" style="shape=partialRectangle;connectable=0;fillColor=none;top=0;left=0;bottom=0;right=0;fontStyle=1;overflow=hidden;" parent="TTxkcA3aRhIFXzRTQhmF-99" vertex="1">
                    <mxGeometry width="60" height="30" as="geometry">
                        <mxRectangle width="60" height="30" as="alternateBounds"/>
                    </mxGeometry>
                </mxCell>
                <mxCell id="TTxkcA3aRhIFXzRTQhmF-101" value="fk_doctor_id : int" style="shape=partialRectangle;connectable=0;fillColor=none;top=0;left=0;bottom=0;right=0;align=left;spacingLeft=6;fontStyle=5;overflow=hidden;" parent="TTxkcA3aRhIFXzRTQhmF-99" vertex="1">
                    <mxGeometry x="60" width="181" height="30" as="geometry">
                        <mxRectangle width="181" height="30" as="alternateBounds"/>
                    </mxGeometry>
                </mxCell>
                <mxCell id="TTxkcA3aRhIFXzRTQhmF-102" value="" style="shape=tableRow;horizontal=0;startSize=0;swimlaneHead=0;swimlaneBody=0;fillColor=none;collapsible=0;dropTarget=0;points=[[0,0.5],[1,0.5]];portConstraint=eastwest;top=0;left=0;right=0;bottom=1;" parent="TTxkcA3aRhIFXzRTQhmF-98" vertex="1">
                    <mxGeometry y="60" width="241" height="30" as="geometry"/>
                </mxCell>
                <mxCell id="TTxkcA3aRhIFXzRTQhmF-103" value="PK,FK2" style="shape=partialRectangle;connectable=0;fillColor=none;top=0;left=0;bottom=0;right=0;fontStyle=1;overflow=hidden;" parent="TTxkcA3aRhIFXzRTQhmF-102" vertex="1">
                    <mxGeometry width="60" height="30" as="geometry">
                        <mxRectangle width="60" height="30" as="alternateBounds"/>
                    </mxGeometry>
                </mxCell>
                <mxCell id="TTxkcA3aRhIFXzRTQhmF-104" value="fk_doctorInCharge_id : int" style="shape=partialRectangle;connectable=0;fillColor=none;top=0;left=0;bottom=0;right=0;align=left;spacingLeft=6;fontStyle=5;overflow=hidden;" parent="TTxkcA3aRhIFXzRTQhmF-102" vertex="1">
                    <mxGeometry x="60" width="181" height="30" as="geometry">
                        <mxRectangle width="181" height="30" as="alternateBounds"/>
                    </mxGeometry>
                </mxCell>
                <mxCell id="TTxkcA3aRhIFXzRTQhmF-105" value="Unit" style="shape=table;startSize=30;container=1;collapsible=1;childLayout=tableLayout;fixedRows=1;rowLines=0;fontStyle=1;align=center;resizeLast=1;" parent="1" vertex="1">
                    <mxGeometry x="720" y="-735" width="180" height="120" as="geometry"/>
                </mxCell>
                <mxCell id="TTxkcA3aRhIFXzRTQhmF-106" value="" style="shape=tableRow;horizontal=0;startSize=0;swimlaneHead=0;swimlaneBody=0;fillColor=none;collapsible=0;dropTarget=0;points=[[0,0.5],[1,0.5]];portConstraint=eastwest;top=0;left=0;right=0;bottom=1;" parent="TTxkcA3aRhIFXzRTQhmF-105" vertex="1">
                    <mxGeometry y="30" width="180" height="30" as="geometry"/>
                </mxCell>
                <mxCell id="TTxkcA3aRhIFXzRTQhmF-107" value="PK" style="shape=partialRectangle;connectable=0;fillColor=none;top=0;left=0;bottom=0;right=0;fontStyle=1;overflow=hidden;" parent="TTxkcA3aRhIFXzRTQhmF-106" vertex="1">
                    <mxGeometry width="30" height="30" as="geometry">
                        <mxRectangle width="30" height="30" as="alternateBounds"/>
                    </mxGeometry>
                </mxCell>
                <mxCell id="TTxkcA3aRhIFXzRTQhmF-108" value="Unit_id : int" style="shape=partialRectangle;connectable=0;fillColor=none;top=0;left=0;bottom=0;right=0;align=left;spacingLeft=6;fontStyle=5;overflow=hidden;" parent="TTxkcA3aRhIFXzRTQhmF-106" vertex="1">
                    <mxGeometry x="30" width="150" height="30" as="geometry">
                        <mxRectangle width="150" height="30" as="alternateBounds"/>
                    </mxGeometry>
                </mxCell>
                <mxCell id="TTxkcA3aRhIFXzRTQhmF-109" value="" style="shape=tableRow;horizontal=0;startSize=0;swimlaneHead=0;swimlaneBody=0;fillColor=none;collapsible=0;dropTarget=0;points=[[0,0.5],[1,0.5]];portConstraint=eastwest;top=0;left=0;right=0;bottom=0;" parent="TTxkcA3aRhIFXzRTQhmF-105" vertex="1">
                    <mxGeometry y="60" width="180" height="30" as="geometry"/>
                </mxCell>
                <mxCell id="TTxkcA3aRhIFXzRTQhmF-110" value="" style="shape=partialRectangle;connectable=0;fillColor=none;top=0;left=0;bottom=0;right=0;editable=1;overflow=hidden;" parent="TTxkcA3aRhIFXzRTQhmF-109" vertex="1">
                    <mxGeometry width="30" height="30" as="geometry">
                        <mxRectangle width="30" height="30" as="alternateBounds"/>
                    </mxGeometry>
                </mxCell>
                <mxCell id="TTxkcA3aRhIFXzRTQhmF-111" value="unit_name : varchar(15)" style="shape=partialRectangle;connectable=0;fillColor=none;top=0;left=0;bottom=0;right=0;align=left;spacingLeft=6;overflow=hidden;" parent="TTxkcA3aRhIFXzRTQhmF-109" vertex="1">
                    <mxGeometry x="30" width="150" height="30" as="geometry">
                        <mxRectangle width="150" height="30" as="alternateBounds"/>
                    </mxGeometry>
                </mxCell>
                <mxCell id="TTxkcA3aRhIFXzRTQhmF-112" value="" style="shape=tableRow;horizontal=0;startSize=0;swimlaneHead=0;swimlaneBody=0;fillColor=none;collapsible=0;dropTarget=0;points=[[0,0.5],[1,0.5]];portConstraint=eastwest;top=0;left=0;right=0;bottom=0;" parent="TTxkcA3aRhIFXzRTQhmF-105" vertex="1">
                    <mxGeometry y="90" width="180" height="30" as="geometry"/>
                </mxCell>
                <mxCell id="TTxkcA3aRhIFXzRTQhmF-113" value="FK" style="shape=partialRectangle;connectable=0;fillColor=none;top=0;left=0;bottom=0;right=0;editable=1;overflow=hidden;" parent="TTxkcA3aRhIFXzRTQhmF-112" vertex="1">
                    <mxGeometry width="30" height="30" as="geometry">
                        <mxRectangle width="30" height="30" as="alternateBounds"/>
                    </mxGeometry>
                </mxCell>
                <mxCell id="TTxkcA3aRhIFXzRTQhmF-114" value="fk_docInCharge_id" style="shape=partialRectangle;connectable=0;fillColor=none;top=0;left=0;bottom=0;right=0;align=left;spacingLeft=6;overflow=hidden;" parent="TTxkcA3aRhIFXzRTQhmF-112" vertex="1">
                    <mxGeometry x="30" width="150" height="30" as="geometry">
                        <mxRectangle width="150" height="30" as="alternateBounds"/>
                    </mxGeometry>
                </mxCell>
                <mxCell id="zIAO-UQCr3jPqR1nA1bN-1" value="Floor" style="shape=table;startSize=30;container=1;collapsible=1;childLayout=tableLayout;fixedRows=1;rowLines=0;fontStyle=1;align=center;resizeLast=1;" parent="1" vertex="1">
                    <mxGeometry x="330" y="-880" width="310" height="130" as="geometry"/>
                </mxCell>
                <mxCell id="zIAO-UQCr3jPqR1nA1bN-2" value="" style="shape=tableRow;horizontal=0;startSize=0;swimlaneHead=0;swimlaneBody=0;fillColor=none;collapsible=0;dropTarget=0;points=[[0,0.5],[1,0.5]];portConstraint=eastwest;top=0;left=0;right=0;bottom=1;" parent="zIAO-UQCr3jPqR1nA1bN-1" vertex="1">
                    <mxGeometry y="30" width="310" height="30" as="geometry"/>
                </mxCell>
                <mxCell id="zIAO-UQCr3jPqR1nA1bN-3" value="PK" style="shape=partialRectangle;connectable=0;fillColor=none;top=0;left=0;bottom=0;right=0;fontStyle=1;overflow=hidden;" parent="zIAO-UQCr3jPqR1nA1bN-2" vertex="1">
                    <mxGeometry width="30" height="30" as="geometry">
                        <mxRectangle width="30" height="30" as="alternateBounds"/>
                    </mxGeometry>
                </mxCell>
                <mxCell id="zIAO-UQCr3jPqR1nA1bN-4" value="Floor_id" style="shape=partialRectangle;connectable=0;fillColor=none;top=0;left=0;bottom=0;right=0;align=left;spacingLeft=6;fontStyle=5;overflow=hidden;" parent="zIAO-UQCr3jPqR1nA1bN-2" vertex="1">
                    <mxGeometry x="30" width="280" height="30" as="geometry">
                        <mxRectangle width="280" height="30" as="alternateBounds"/>
                    </mxGeometry>
                </mxCell>
                <mxCell id="zIAO-UQCr3jPqR1nA1bN-5" value="" style="shape=tableRow;horizontal=0;startSize=0;swimlaneHead=0;swimlaneBody=0;fillColor=none;collapsible=0;dropTarget=0;points=[[0,0.5],[1,0.5]];portConstraint=eastwest;top=0;left=0;right=0;bottom=0;" parent="zIAO-UQCr3jPqR1nA1bN-1" vertex="1">
                    <mxGeometry y="60" width="310" height="70" as="geometry"/>
                </mxCell>
                <mxCell id="zIAO-UQCr3jPqR1nA1bN-6" value="" style="shape=partialRectangle;connectable=0;fillColor=none;top=0;left=0;bottom=0;right=0;editable=1;overflow=hidden;" parent="zIAO-UQCr3jPqR1nA1bN-5" vertex="1">
                    <mxGeometry width="30" height="70" as="geometry">
                        <mxRectangle width="30" height="70" as="alternateBounds"/>
                    </mxGeometry>
                </mxCell>
                <mxCell id="zIAO-UQCr3jPqR1nA1bN-7" value="Floor number" style="shape=partialRectangle;connectable=0;fillColor=none;top=0;left=0;bottom=0;right=0;align=left;spacingLeft=6;overflow=hidden;" parent="zIAO-UQCr3jPqR1nA1bN-5" vertex="1">
                    <mxGeometry x="30" width="280" height="70" as="geometry">
                        <mxRectangle width="280" height="70" as="alternateBounds"/>
                    </mxGeometry>
                </mxCell>
                <mxCell id="zIAO-UQCr3jPqR1nA1bN-11" value="Floor's Unit" style="shape=table;startSize=30;container=1;collapsible=1;childLayout=tableLayout;fixedRows=1;rowLines=0;fontStyle=1;align=center;resizeLast=1;" parent="1" vertex="1">
                    <mxGeometry x="380" y="-720" width="241" height="90" as="geometry"/>
                </mxCell>
                <mxCell id="zIAO-UQCr3jPqR1nA1bN-12" value="" style="shape=tableRow;horizontal=0;startSize=0;swimlaneHead=0;swimlaneBody=0;fillColor=none;collapsible=0;dropTarget=0;points=[[0,0.5],[1,0.5]];portConstraint=eastwest;top=0;left=0;right=0;bottom=0;" parent="zIAO-UQCr3jPqR1nA1bN-11" vertex="1">
                    <mxGeometry y="30" width="241" height="30" as="geometry"/>
                </mxCell>
                <mxCell id="zIAO-UQCr3jPqR1nA1bN-13" value="PK,FK1" style="shape=partialRectangle;connectable=0;fillColor=none;top=0;left=0;bottom=0;right=0;fontStyle=1;overflow=hidden;" parent="zIAO-UQCr3jPqR1nA1bN-12" vertex="1">
                    <mxGeometry width="60" height="30" as="geometry">
                        <mxRectangle width="60" height="30" as="alternateBounds"/>
                    </mxGeometry>
                </mxCell>
                <mxCell id="zIAO-UQCr3jPqR1nA1bN-14" value="fk_floor_id : int" style="shape=partialRectangle;connectable=0;fillColor=none;top=0;left=0;bottom=0;right=0;align=left;spacingLeft=6;fontStyle=5;overflow=hidden;" parent="zIAO-UQCr3jPqR1nA1bN-12" vertex="1">
                    <mxGeometry x="60" width="181" height="30" as="geometry">
                        <mxRectangle width="181" height="30" as="alternateBounds"/>
                    </mxGeometry>
                </mxCell>
                <mxCell id="zIAO-UQCr3jPqR1nA1bN-15" value="" style="shape=tableRow;horizontal=0;startSize=0;swimlaneHead=0;swimlaneBody=0;fillColor=none;collapsible=0;dropTarget=0;points=[[0,0.5],[1,0.5]];portConstraint=eastwest;top=0;left=0;right=0;bottom=1;" parent="zIAO-UQCr3jPqR1nA1bN-11" vertex="1">
                    <mxGeometry y="60" width="241" height="30" as="geometry"/>
                </mxCell>
                <mxCell id="zIAO-UQCr3jPqR1nA1bN-16" value="PK,FK2" style="shape=partialRectangle;connectable=0;fillColor=none;top=0;left=0;bottom=0;right=0;fontStyle=1;overflow=hidden;" parent="zIAO-UQCr3jPqR1nA1bN-15" vertex="1">
                    <mxGeometry width="60" height="30" as="geometry">
                        <mxRectangle width="60" height="30" as="alternateBounds"/>
                    </mxGeometry>
                </mxCell>
                <mxCell id="zIAO-UQCr3jPqR1nA1bN-17" value="fk_unit_id : int" style="shape=partialRectangle;connectable=0;fillColor=none;top=0;left=0;bottom=0;right=0;align=left;spacingLeft=6;fontStyle=5;overflow=hidden;" parent="zIAO-UQCr3jPqR1nA1bN-15" vertex="1">
                    <mxGeometry x="60" width="181" height="30" as="geometry">
                        <mxRectangle width="181" height="30" as="alternateBounds"/>
                    </mxGeometry>
                </mxCell>
                <mxCell id="zIAO-UQCr3jPqR1nA1bN-18" value="" style="edgeStyle=entityRelationEdgeStyle;fontSize=12;html=1;endArrow=ERoneToMany;" parent="1" source="zIAO-UQCr3jPqR1nA1bN-2" target="zIAO-UQCr3jPqR1nA1bN-12" edge="1">
                    <mxGeometry width="100" height="100" relative="1" as="geometry">
                        <mxPoint x="630" y="-680" as="sourcePoint"/>
                        <mxPoint x="730" y="-780" as="targetPoint"/>
                    </mxGeometry>
                </mxCell>
                <mxCell id="zIAO-UQCr3jPqR1nA1bN-19" value="" style="edgeStyle=entityRelationEdgeStyle;fontSize=12;html=1;endArrow=ERoneToMany;entryX=1;entryY=0.5;entryDx=0;entryDy=0;" parent="1" source="TTxkcA3aRhIFXzRTQhmF-106" target="zIAO-UQCr3jPqR1nA1bN-15" edge="1">
                    <mxGeometry width="100" height="100" relative="1" as="geometry">
                        <mxPoint x="630" y="-560" as="sourcePoint"/>
                        <mxPoint x="730" y="-660" as="targetPoint"/>
                    </mxGeometry>
                </mxCell>
                <mxCell id="zIAO-UQCr3jPqR1nA1bN-20" value="" style="edgeStyle=entityRelationEdgeStyle;fontSize=12;html=1;endArrow=ERoneToMany;" parent="1" source="TTxkcA3aRhIFXzRTQhmF-73" target="TTxkcA3aRhIFXzRTQhmF-112" edge="1">
                    <mxGeometry width="100" height="100" relative="1" as="geometry">
                        <mxPoint x="770" y="-520" as="sourcePoint"/>
                        <mxPoint x="990" y="-480" as="targetPoint"/>
                    </mxGeometry>
                </mxCell>
                <mxCell id="zIAO-UQCr3jPqR1nA1bN-22" value="" style="edgeStyle=entityRelationEdgeStyle;fontSize=12;html=1;endArrow=ERoneToMany;" parent="1" source="TTxkcA3aRhIFXzRTQhmF-73" target="TTxkcA3aRhIFXzRTQhmF-102" edge="1">
                    <mxGeometry width="100" height="100" relative="1" as="geometry">
                        <mxPoint x="750" y="-450" as="sourcePoint"/>
                        <mxPoint x="850" y="-550" as="targetPoint"/>
                    </mxGeometry>
                </mxCell>
                <mxCell id="zIAO-UQCr3jPqR1nA1bN-23" value="" style="edgeStyle=entityRelationEdgeStyle;fontSize=12;html=1;endArrow=ERoneToMany;" parent="1" source="TTxkcA3aRhIFXzRTQhmF-60" target="TTxkcA3aRhIFXzRTQhmF-99" edge="1">
                    <mxGeometry width="100" height="100" relative="1" as="geometry">
                        <mxPoint x="540" y="-170" as="sourcePoint"/>
                        <mxPoint x="640" y="-270" as="targetPoint"/>
                    </mxGeometry>
                </mxCell>
                <mxCell id="zIAO-UQCr3jPqR1nA1bN-24" value="" style="edgeStyle=entityRelationEdgeStyle;fontSize=12;html=1;endArrow=ERoneToMany;" parent="1" source="TTxkcA3aRhIFXzRTQhmF-60" target="TTxkcA3aRhIFXzRTQhmF-47" edge="1">
                    <mxGeometry width="100" height="100" relative="1" as="geometry">
                        <mxPoint x="280" y="-300" as="sourcePoint"/>
                        <mxPoint x="90" y="-510" as="targetPoint"/>
                    </mxGeometry>
                </mxCell>
                <mxCell id="zIAO-UQCr3jPqR1nA1bN-32" value="" style="edgeStyle=entityRelationEdgeStyle;fontSize=12;html=1;endArrow=ERoneToMany;" parent="1" source="TTxkcA3aRhIFXzRTQhmF-33" target="TTxkcA3aRhIFXzRTQhmF-50" edge="1">
                    <mxGeometry width="100" height="100" relative="1" as="geometry">
                        <mxPoint x="180" y="-50" as="sourcePoint"/>
                        <mxPoint x="280" y="-150" as="targetPoint"/>
                    </mxGeometry>
                </mxCell>
                <mxCell id="zIAO-UQCr3jPqR1nA1bN-33" value="" style="edgeStyle=entityRelationEdgeStyle;fontSize=12;html=1;endArrow=ERoneToMany;" parent="1" source="TTxkcA3aRhIFXzRTQhmF-33" target="TTxkcA3aRhIFXzRTQhmF-20" edge="1">
                    <mxGeometry width="100" height="100" relative="1" as="geometry">
                        <mxPoint x="180" y="-200" as="sourcePoint"/>
                        <mxPoint x="280" y="-300" as="targetPoint"/>
                    </mxGeometry>
                </mxCell>
                <mxCell id="zIAO-UQCr3jPqR1nA1bN-34" value="" style="edgeStyle=entityRelationEdgeStyle;fontSize=12;html=1;endArrow=ERoneToMany;" parent="1" source="TTxkcA3aRhIFXzRTQhmF-2" target="TTxkcA3aRhIFXzRTQhmF-23" edge="1">
                    <mxGeometry width="100" height="100" relative="1" as="geometry">
                        <mxPoint x="-60" as="sourcePoint"/>
                        <mxPoint x="40" y="-100" as="targetPoint"/>
                    </mxGeometry>
                </mxCell>
            </root>
        </mxGraphModel>
    </diagram>
</mxfile>